<svg preserveAspectRatio="none" xmlns="http://www.w3.org/2000/svg" width="858" height="79" viewBox="0 0 858 79">
    <path fill="#F9F1AE" fill-rule="nonzero" d="M612.514.14c0-.077.27-.14.6-.14.33 0 .492.063.361.14-.132.076-.4.138-.6.138-.2 0-.361-.062-.361-.139zm-2.692.973c0-.077.174-.14.385-.14.211 0 .384.063.384.14 0 .076-.172.139-.384.139-.212 0-.385-.063-.385-.14zm48.063.417c0-.076.077-.14.17-.14.094 0 .277.064.408.14.132.077.054.14-.17.14-.225 0-.408-.064-.408-.14zm-43.16.047a4.01 4.01 0 0 1 .961 0c.264.039.048.07-.48.07-.53 0-.746-.031-.481-.07zm73.152.092c0-.076.27-.139.6-.139.329 0 .492.063.36.14-.131.076-.4.138-.599.138-.2 0-.361-.062-.361-.139zm-1.73 0c-.133-.076-.067-.139.147-.139.211 0 .491.063.622.14.13.076.064.138-.148.138-.21 0-.49-.062-.622-.139zm-43.257.444c0-.075.274-.174.609-.22.374-.052.55-.021.456.08-.19.208-1.065.323-1.065.14zm-32.072-.26c-.897-.279-1.012-.373-.577-.473a6.054 6.054 0 0 1 1.12-.124c.512 0 .512.016 0 .146-.43.108-.257.122.672.056.987-.07 1.25-.043 1.25.13 0 .121.26.22.577.22.317 0 .576.067.576.149 0 .086-.329.11-.787.058-.433-.05-.995-.028-1.25.048-.323.097-.798.034-1.581-.21zm85.713.374c-.134-.079.023-.102.361-.054.666.092.788.192.235.192-.2 0-.467-.062-.596-.138zm-134.387-.001c0-.077.173-.14.385-.14.211 0 .384.063.384.14 0 .076-.173.139-.384.139-.212 0-.385-.063-.385-.14zm148.803.139c0-.077.172-.14.384-.14.212 0 .385.063.385.14 0 .076-.173.139-.385.139-.211 0-.384-.063-.384-.14zm-10.855-.024c.222-.08.633-.12.91-.086.288.035.114.098-.406.147-.64.06-.79.043-.504-.06zm-91.039.101c0-.033.174-.1.385-.147.211-.047.384-.02.384.062 0 .08-.173.147-.384.147-.212 0-.385-.028-.385-.062zm-41.718-.078c-.137-.08.22-.138.842-.136.839.001.951.032.504.136-.74.173-1.051.173-1.346 0zm77.349.186c-.39-.141-.306-.325.15-.325.225 0 .31.058.19.128s0 .159.267.197c.267.04.296.076.065.082-.229.005-.531-.031-.673-.082h.001zm39.347.093c-.463-.109-.403-.136.312-.137.495-.002.782.059.65.137-.286.167-.246.167-.962 0zm18.292.174a4.89 4.89 0 0 0 .587-.22c.132-.065.345-.018.473.104.168.158 0 .22-.587.22-.451 0-.664-.047-.473-.104zm-314.27-.061c.232-.253.937-.288.937-.048 0 .117-.246.213-.545.213-.3 0-.476-.074-.393-.165zm-65.454.034c0-.081.173-.147.384-.147.212 0 .385.027.385.061s-.173.1-.385.147c-.211.048-.384.02-.384-.061zm306.826.204c.553-.242.776-.267.776-.088 0 .068-.284.164-.631.212-.528.073-.552.053-.145-.124zm12.503.205c.13-.077.4-.14.6-.14.2 0 .362.063.362.14 0 .076-.27.14-.6.14-.33 0-.492-.064-.362-.14zm-9.035 0c0-.077.077-.14.17-.14.093 0 .276.063.407.14.132.076.055.14-.17.14s-.407-.064-.407-.14zm-20.958-.002c-.131-.077.032-.177.362-.223.33-.046.601-.17.601-.277 0-.107.173-.194.385-.194.503 0 .498.376 0 .488-.216.048-.291.146-.17.217.12.071-.039.13-.356.13s-.684-.064-.816-.14h-.006zm-3.266.002c0-.077.173-.14.384-.14.212 0 .385.063.385.14 0 .076-.173.14-.385.14-.211 0-.384-.064-.384-.14zm-1.154 0c0-.077.173-.14.385-.14.211 0 .384.063.384.14 0 .076-.173.14-.384.14-.212 0-.385-.064-.385-.14zm70.749.217c0-.034.173-.1.385-.147.21-.048.384-.02.384.06 0 .082-.173.148-.384.148-.212 0-.385-.027-.385-.061zm-55.753.139c0-.034.173-.1.385-.147.21-.048.384-.02.384.061s-.173.147-.384.147c-.212 0-.385-.027-.385-.061zm-27.876-.078c.13-.076.563-.139.96-.139.399 0 .831.063.962.14.14.08-.26.138-.961.138s-1.1-.058-.961-.139zm20.827.186c-.467-.17-.266-.317.32-.236.318.044.577.136.577.204 0 .146-.53.165-.897.032zm-25.057-.047c-.13-.076-.054-.139.17-.139s.407.063.407.14c0 .076-.076.138-.17.138-.093 0-.276-.062-.407-.139zm124.66 0c.111-.153.247-.278.304-.278.056 0 .193.125.303.278.125.174 0 .278-.303.278-.316 0-.43-.104-.304-.278zm-134.183.158c.894-.209 1.482-.258 2.099-.175.766.102.704.125-.597.213-.8.054-1.744.133-2.1.175-.355.042-.086-.054.598-.213zm45.09.26c-.498-.117-.487-.136.072-.137.358-.002.757.06.888.137.3.176-.209.176-.961 0zm3.076.223c0-.03.26-.09.576-.135.318-.044.577-.02.577.055 0 .074-.26.135-.577.135-.317 0-.576-.025-.576-.055zm-41.76-.109c-.11-.064.07-.154.399-.2.33-.045.503-.139.386-.207-.117-.069.076-.125.428-.125.426 0 .562.074.407.22-.128.121-.233.267-.233.325 0 .143-1.14.133-1.387-.013zm52.63.219c.127-.046.46-.051.737-.011.307.044.216.077-.233.084-.405.006-.632-.027-.504-.073zm-34.325-.051c0-.189.683-.306.932-.16.12.07-.042.162-.358.206-.316.044-.574.023-.574-.046zm-13.212-.074c.122-.115.483-.208.804-.208.474 0 .493.038.104.208-.263.115-.625.209-.804.209-.18 0-.226-.094-.104-.209zm62.044.426c0-.034.172-.1.384-.148.212-.047.385-.02.385.062 0 .08-.173.147-.385.147-.21 0-.384-.028-.384-.061zm-43.419-.136c-.023-.147.075-.229.203-.183.127.047.14.167.029.267-.123.111-.214.078-.233-.084h.001zm34.96.058c0-.153.156-.278.348-.278.191 0 .258.125.148.278-.111.153-.268.278-.349.278-.081 0-.147-.125-.147-.278zm-24.748.07c.123-.115.434-.21.693-.21.26 0 .472.095.472.21 0 .114-.312.208-.693.208-.458 0-.618-.07-.472-.208zm92.85-.126c-.876-.265-1.438-.516-1.248-.559.4-.09 3.371.85 3.054.965-.116.042-.928-.14-1.805-.406zm-11.004.334c-.131-.076-.065-.139.148-.139.211 0 .491.063.622.14.132.076.066.138-.147.138-.212 0-.492-.062-.623-.139zm-67.619-.07c.123-.114.29-.208.372-.208.084 0 .153.094.153.209 0 .114-.168.208-.373.208-.204 0-.273-.094-.152-.208zm-27.16.058c0-.08-.174-.105-.385-.057-.212.047-.385.02-.385-.062 0-.176.76-.189 1.475-.025.412.094.394.134-.097.202-.334.046-.609.02-.609-.058zm-3.077.012c0-.076.163-.139.362-.139.2 0 .469.063.6.14.13.076-.032.138-.362.138-.33 0-.6-.062-.6-.139zm112.685.082c-.365-.16-.319-.189.242-.15a31.66 31.66 0 0 0 1.39.058c.899.014.443.289-.48.289-.384 0-.902-.089-1.152-.198zm-4.767.104c-.443-.16-.28-.324.32-.324.317 0 .577.094.577.208 0 .218-.455.276-.897.116zm-82.636 0a4.01 4.01 0 0 1 .96 0c.265.039.049.07-.48.07s-.745-.031-.48-.07zm3.556.1c0-.08.173-.147.385-.147.21 0 .384.028.384.062 0 .033-.173.1-.384.147-.212.047-.385.02-.385-.061zm-24.608 0c0-.08.173-.147.384-.147.212 0 .385.028.385.062 0 .033-.173.1-.385.147-.211.047-.384.02-.384-.061zm104.867.254c.26-.095.57-.138.69-.095.117.043-.096.12-.475.173-.548.075-.592.06-.216-.078zm-4.127-.185c0-.322.111-.35 1.057-.268.582.05 1.132.116 1.224.144.265.083-.474.286-1.416.39-.742.08-.865.043-.865-.266zm-1.282.249c-.14-.051-.256-.158-.256-.237 0-.087.18-.079.455.02.25.091.365.198.256.237-.11.04-.314.03-.455-.02zm-3.236 0c-.633-.093-.621-.465.023-.465.272 0 .52.125.552.278.032.153.025.274-.022.268l-.553-.081zm-99.919.17c-.122-.115-.47-.164-.82-.115-.402.055-.514.029-.33-.079.412-.24.922-.198 1.386.116.227.153.314.278.194.278s-.313-.09-.43-.2zm36.38.2c-.665-.149-.303-.322.536-.256.355.028.48.115.309.214-.184.106-.49.121-.844.042zm66.058.323c.376-.055.327-.121-.193-.263-.618-.17-.506-.19 1.037-.186 1.362.003 1.555.03.905.125-.454.066-.94.187-1.08.27-.141.081-.46.143-.712.137-.31-.007-.297-.034.043-.083zM650.384 4.31c-.132-.078-.403-.106-.6-.062-.533.12-.434.203.242.203.33 0 .49-.064.358-.142zm.195 1.733c0-.182-.464-.263-1.25-.218-.159.01-.314-.061-.347-.157-.165-.49-.127-.6.238-.693.218-.057 0-.104-.514-.105-.792-.002-.845-.031-.403-.224.43-.187.407-.243-.146-.355-.36-.072-.654-.195-.654-.272 0-.078.2-.096.445-.041.244.054 1.023.091 1.73.082.707-.01 1.285.043 1.285.117 0 .074.26.135.577.135.317 0 .577.062.577.139 0 .076-.173.139-.385.139-.211 0-.384.063-.384.14 0 .076.278.138.618.138.385 0 .536.077.401.204-.29.273.455.421 1.864.37 1.53-.054.914.137-1.634.508-1.641.239-2.018.256-2.018.093zm109.583.216c0-.076.078-.139.17-.139.094 0 .277.063.408.14.13.076.054.138-.17.138-.225 0-.408-.062-.408-.139zm-47.101-.204c-1.224-.363-.905-.486.362-.14.854.235 1.528.272 1.176.066-.13-.077-.055-.14.17-.14.472 0 .49.038.173.337-.311.293-.525.28-1.882-.123zm-101.798.251c.265-.038.697-.038.962 0 .264.039.048.07-.48.07-.53 0-.746-.031-.482-.07zm-3.894-.162c-.17-.178-.215-.357-.1-.399.384-.139 2.208.1 1.943.255-.169.099.055.12.658.065l.913-.086-.91.169c-.768.142-.986.13-1.41-.08-.469-.232-.512-.227-.643.076l-.141.324-.31-.324zm112.753.328c-.1-.036-.73-.08-1.4-.099-.67-.018-1.304-.113-1.407-.21-.102-.098-.454-.14-.78-.095-.432.06-.582-.006-.56-.246.023-.18.118-.25.225-.154.107.096.424.174.706.174s.581.074.664.164c.098.107.413.124.897.049 1.275-.198 1.708-.196 1.708.008 0 .108.172.196.384.196.211 0 .385.063.385.14 0 .143-.504.188-.822.073zM604.63 6.398c-.627-.097-.649-.121-.119-.13.358-.005.757.054.888.13.273.16.26.16-.77 0zm106.908.288c-.12-.071-.045-.169.17-.217.216-.048.391.01.391.13 0 .244-.23.28-.56.087zm-66.23.056c-.356-.138-.272-.194.39-.258 1.879-.183 2.547.025.935.29-.637.106-.991.097-1.324-.032zm64.212.119c-.358-.338.318-.486.979-.213.351.145.898.3 1.215.346.317.045 0 .073-.718.06-.712-.012-1.376-.1-1.476-.193zm-71.011-.073c-.317-.176-.558-.54-.536-.807.023-.268.114-.409.202-.313.26.278 1.79.2 2.34-.119.279-.16.33-.253.112-.205-.216.049-.572-.032-.79-.18-.339-.229-.287-.258.352-.198.943.09 1.37.547.76.813-.255.111-.356.21-.225.22l.528.036c.534.036 1.25.24 1.25.355 0 .143-1.448.492-2.575.621-.635.073-.986.017-1.42-.223h.002zm98.582.504c0-.133 1.073-.477 1.488-.477.67 0 .943.304.388.431-.596.137-1.876.168-1.876.046zm-18.84-.051c0-.081.172-.147.384-.147.211 0 .385.027.385.061s-.173.1-.385.147c-.211.048-.384.02-.384-.061zm13.073.127c0-.075.26-.135.576-.135.318 0 .577.024.577.054s-.26.091-.577.135c-.317.044-.576.02-.576-.054zm21.532.143c0-.077.163-.14.362-.14.2 0 .468.063.599.14.13.076-.031.14-.362.14-.33 0-.6-.064-.6-.14zm-32.683 0c-.317-.074-.404-.137-.193-.14.211-.002.125-.064-.193-.138-.493-.115-.48-.135.095-.137.37-.002.673-.069.673-.15 0-.08.173-.108.385-.061.444.1.528.766.095.763-.159-.002-.548-.063-.865-.137h.003zm-45.199-.104c-.161-.134-.267-.29-.233-.348.034-.057-.187-.104-.49-.104s-.66-.126-.795-.279c-.134-.153-.39-.278-.567-.278-.177 0-.238-.117-.134-.26.175-.242 2.296-.574 3.667-.574.6 0 2.1.522 1.937.675-.052.05.082.111.3.138.219.026.371-.005.34-.07-.218-.444.862-.608 2.5-.38.68.093.824.546.219.681-.216.048-.303.14-.195.202.106.063-.236.154-.763.202-1.098.1-1.29.352-.286.376 1.197.03-1.578.229-3.42.246-1.36.012-1.854-.042-2.079-.227h-.001zm-213.852.159c.128-.046.46-.051.737-.011.307.044.216.077-.232.084-.406.006-.633-.027-.505-.073zm270.97.223c0-.076.078-.139.171-.139.093 0 .277.063.407.14.13.076.055.138-.17.138s-.407-.062-.407-.139zm-1.537 0c0-.076.163-.139.361-.139.2 0 .47.063.6.14.132.076-.032.138-.362.138-.33 0-.6-.062-.6-.139zm-1.923-.695c0-.077-.303-.138-.673-.137-.575.002-.589.022-.095.137.725.17.769.17.769 0zm-1.904.912c-.252-.11-.706-.166-1.008-.124-.302.042-.548.002-.548-.087 0-.296.785-.701 1.359-.701.661 0 .694-.07.19-.41-.31-.21-.22-.251.547-.251.621 0 .853.062.716.191-.218.205.21.243 1.191.107.333-.046.51-.14.393-.208-.118-.069-.048-.125.153-.125.609 0 .893.456.365.585-1.46.355-1.903.404-2.376.262-.35-.105-.698-.088-1.225.06-.583.163-.602.19-.089.125a4.773 4.773 0 0 1 1.284.047c.571.116.575.15.04.343-.325.118-.485.253-.354.3.132.048.143.086.03.086-.117 0-.417-.09-.67-.2h.002zm-53.176.108a4.01 4.01 0 0 1 .961 0c.265.039.048.07-.48.07-.529 0-.745-.031-.48-.07zm19.23.179c-.902-.248-1.021-.777-.217-.966.934-.22 2.8.042 2.834.396.063.68-1.205.957-2.616.57zm-9.81.1c-.264-.039-.48-.187-.48-.329 0-.142-.166-.295-.368-.34-.42-.094-.086-.51.532-.663.792-.196 3.416-.11 4.187.137.557.178.805.197.928.07.235-.244 1.833-.218 2.422.04.397.172.393.277-.023.555-.28.19-.695.348-.923.353-.229.006-.07.064.353.13.676.105.639.12-.311.129-.731.006-.99-.043-.802-.153.186-.11.068-.134-.362-.074-.352.049-.64.039-.64-.023 0-.155-1.179-.104-2.185.094-.875.172-1.517.193-2.333.074h.005zm-174.94.008c.127-.046.459-.051.736-.011.307.044.216.077-.232.084-.405.005-.632-.027-.504-.073zm209.416-.096c-.315-.25-.32-.418-.023-.605.228-.142.42-.18.427-.085 0 .096.304.174.662.174.567 0 .555.026-.095.205-.728.199-.725.204.118.208.476.003.865.067.865.144 0 .076-.073.139-.162.139-.088 0-.43.037-.76.083-.397.055-.746-.034-1.035-.263h.003zm-211.059.188c0-.081.173-.147.385-.147.211 0 .384.027.384.061s-.173.1-.384.147c-.212.048-.385.02-.385-.061zm179.745.125c-.125-.073.13-.133.565-.133.928 0 1.022.077.227.187-.31.044-.667.019-.792-.054zm-54.293.06c.128-.045.46-.05.738-.01.306.044.215.077-.233.084-.405.006-.632-.027-.505-.073zm-12.792-.046c0-.08.172-.147.384-.147.211 0 .385.027.385.061s-.173.1-.385.147c-.211.048-.384.02-.384-.06zm102.278.131c0-.077.145-.14.322-.14.178 0 .52-.156.761-.347.328-.26.328-.348 0-.348-.242 0-.35-.032-.24-.072.381-.138 1.39.092 1.584.36.107.148.514.27.903.27.516 0 .409.057-.392.208-1.255.237-2.936.276-2.936.069h-.002zm-99.098.055c.127-.046.46-.051.737-.011.307.044.216.077-.232.084-.406.006-.633-.027-.505-.073zm57.675.14c.128-.047.46-.052.737-.012.307.044.216.077-.232.084-.405.006-.632-.027-.505-.073zm49.882-.06c0-.357.974-.501 1.77-.262.549.165.541.199-.078.363-.997.264-1.691.222-1.691-.101h-.001zm-31.104.032c-.65-.439-.51-.836.351-1.003 1.58-.306 2.228.313.94.898-.85.385-.874.387-1.291.105zm-44.259.196c0-.03.269-.092.597-.138.342-.047.496-.024.361.055-.224.132-.958.195-.958.083zm-17.687-.072c0-.07.346-.093.769-.053.423.04.769.097.769.126 0 .03-.346.053-.77.053-.422 0-.768-.057-.768-.126zm8.843.126c1.375-.159 1.923-.159 1.923 0 0 .077-.649.133-1.442.125-1.287-.012-1.338-.025-.48-.125zm97.468.137c-.352-.206-.023-.311.803-.253.6.042.607.065.063.227-.432.13-.677.137-.867.026zm-26.523.005c-.134-.078.027-.142.358-.142.676 0 .775.084.242.203-.198.044-.467.016-.6-.061zm13.366.47c.127-.046.46-.051.737-.011.306.044.216.077-.233.084-.405.006-.632-.027-.504-.073zm66.51 1.857c.13-.233.719-.377 1.552-.38.568-.003.616.046.275.276-.446.301-1.984.39-1.826.104zm-2.298.647c.127-.047.46-.052.737-.012.306.045.216.078-.233.085-.405.005-.632-.027-.504-.074zm-752.857 3.06c.128-.047.46-.052.737-.011.307.044.215.077-.232.084-.406.005-.633-.027-.505-.074zm814.104 1.861c-.514-.265-.522-.335-.054-.504.65-.236 2.344-.12 2.664.182.247.233-.69.631-1.485.631-.29 0-.797-.139-1.125-.309zm-817.861.309c-.507-.079-.573-.122-.192-.127.317-.004.836.053 1.153.127.703.164.096.164-.961 0zm778.33.603c.265-.038.697-.038.961 0 .265.039.048.07-.48.07-.529 0-.745-.031-.48-.07zm6.185.12c-.564-.024-1.12-.134-1.238-.244-.163-.154.143-.2 1.313-.2.86 0 1.526.066 1.526.153 0 .1.38.12 1.058.058 2.08-.19 4.018-.23 3.76-.08-.136.08-.077.146.136.146.212 0 .49-.062.62-.137.13-.076.875-.13 1.657-.119.782.011 1.833-.027 2.335-.085.645-.075.833-.059.64.054-.192.112.05.134.818.073.769-.061.931-.046.553.05-.438.111-.403.149.193.204 1.245.115-10.89.23-13.37.126h-.001zm-21.084 1.78c0-.174.408-.174 1.153 0 .466.11.411.136-.288.138-.476.001-.865-.06-.865-.137zm-755.356 0c.13-.076.41-.138.622-.138.211 0 .277.062.146.139-.13.076-.41.139-.622.139-.211 0-.277-.063-.146-.14zm-8.932 1.725c.128-.046.46-.051.737-.011.307.044.215.077-.233.084-.405.006-.632-.027-.504-.073zm3.356.092c0-.081.173-.147.385-.147.211 0 .384.027.384.061s-.173.1-.384.147c-.212.048-.385.02-.385-.061zm.706 1.706c-.352-.033-.745-.16-.874-.281-.203-.192.054-.208 1.966-.127 2.455.105 2.865.179 2.036.368-.577.132-1.98.15-3.128.04zm4.677.098c0-.078.532-.1 1.25-.05 1.752.12 1.808.185.16.185-.775 0-1.41-.06-1.41-.135zm779.092.387c.084-.09.357-.19.608-.22.281-.034.367.03.223.165-.268.253-1.063.306-.832.055zm-10.366 2.168c.127-.046.46-.051.737-.011.307.044.216.077-.233.084-.405.006-.632-.027-.504-.073zm-767.188.077c-.413-.102-.14-.116.962-.05 1.907.116 2.214.197.737.194-.617-.002-1.381-.066-1.699-.145zm-2.691.146c-.922-.107-.926-.112-.096-.125.475-.008.98-.03 1.121-.049a.535.535 0 0 1 .417.14c.177.192-.034.197-1.442.034zm779.387 1.252c-.469-.11-.419-.136.266-.137.463-.002.95.06 1.08.137.303.177-.588.177-1.346 0zm-763.903.055c.128-.046.46-.051.737-.011.307.044.216.077-.232.084-.406.006-.633-.027-.505-.073zm762.654.409a4.01 4.01 0 0 1 .96 0c.265.039.049.07-.48.07-.528 0-.745-.031-.48-.07zm-734.2 1.955c.127-.046.459-.05.736-.01.307.044.216.077-.232.083-.405.006-.633-.027-.505-.073zm729.682.363c0-.077.077-.14.17-.14.093 0 .277.063.407.14.132.076.055.139-.17.139s-.407-.063-.407-.14zm-8.355.194c.127-.046.46-.051.737-.011.306.044.216.077-.232.084-.406.006-.633-.027-.505-.073zm-2.13-.008c.26-.038.78-.04 1.153-.005.374.036.161.067-.473.07-.635.002-.94-.026-.68-.064zm11.062.23c-.13-.076.118-.138.554-.138.435 0 .791.062.791.139 0 .076-.25.139-.554.139-.304 0-.66-.063-.791-.14zm-748.435.704c0-.072.157-.166.35-.209.496-.111 1.61.066 1.355.215-.283.166-1.705.16-1.705-.006zm-8.74 1.02c.128-.046.46-.05.737-.01.307.044.216.077-.232.084-.406.005-.633-.027-.505-.073zm21.71 2.358c.26-.038.779-.04 1.153-.005s.16.066-.474.07c-.634.002-.94-.027-.68-.065zm-26.812.96c.002-.157 4.547-.186 4.812-.03.14.082-.757.135-2.29.135-1.388 0-2.522-.047-2.522-.105zm-42.96.994c.127-.046.459-.05.736-.01.307.044.216.077-.232.083-.405.006-.633-.026-.505-.073zm-3.011-.042c.118-.069.561-.093.984-.053 1.058.1.963.18-.215.18-.542 0-.887-.057-.769-.127zm-4.592-.013c-.951-.087-.783-.107.962-.113 1.507-.004 1.893.028 1.345.113-.89.139-.804.139-2.307 0zm793.91 1.168c.128-.046.46-.051.738-.01.306.044.216.076-.233.083-.405.006-.632-.027-.504-.073zm-778.533.082c-.302-.176 3.108-.27 4.56-.125.772.077 1.403.172 1.403.21 0 .11-5.77.028-5.963-.085zm18.46.559a10.81 10.81 0 0 1 1.345-.12c.364 0 .293.044-.192.12a10.81 10.81 0 0 1-1.346.12c-.363 0-.292-.045.193-.12zm7.964 1.64c-1.888-.18-1.11-.421 1.011-.312.985.05 2.343.086 3.019.078 1.065-.012 2.243.227 1.39.283-1.224.08-4.374.051-5.42-.049zm-25.664.049c-.37-.126-.562-.157-.427-.069.166.108-.191.156-1.1.146-1.516-.015-1.874-.236-.383-.236.529 0 .961-.06.961-.133 0-.128 1.543-.275 3.365-.322.475-.012.865-.062.865-.11 0-.05 1.546-.086 3.436-.083 1.96.004 3.343.061 3.22.134-.126.073.165.08.697.016.987-.118.961-.118 4.374.008 1.269.047 3.129.081 4.133.076 1.005-.005 1.827.053 1.827.128 0 .076.26.102.577.057.71-.098 2.499.052 2.499.21 0 .063-2.838.112-6.306.108-4.508-.005-6.472.042-6.886.167-.404.121-2.027.167-5.38.152-3.868-.016-4.93-.065-5.472-.25zM794 41.032c0-.076.163-.139.362-.139.2 0 .468.063.599.14.13.076-.032.138-.362.138-.33 0-.6-.062-.6-.139zm-740.36.696c-.131-.077-.055-.14.169-.14s.407.063.407.14c0 .076-.076.139-.17.139-.093 0-.276-.063-.407-.14zm-1.923 0c-.742-.116-.74-.12.073-.13.464-.005.95.053 1.08.13.281.164-.095.164-1.153 0zm-2.115.147c0-.081.173-.147.384-.147.212 0 .385.027.385.061s-.173.1-.385.147c-.211.048-.384.02-.384-.061zm-10.913-.035c.09-.053-.472-.059-1.25-.013-.96.056-1.332.035-1.159-.066.336-.197 9.092-.23 9.092-.035 0 .078-.562.15-1.25.161-3.488.057-5.58.04-5.433-.047zm22.448.16c0-.091-.505-.112-1.346-.055-.882.06-1.346.038-1.346-.063 0-.087.658-.154 1.507-.154.829 0 1.824-.037 2.21-.081.664-.076.666-.07.038.118-.366.11-.554.24-.416.29.137.05.048.09-.199.09-.246 0-.448-.065-.448-.145zm-25.377.23c0-.029.346-.085.77-.125.423-.04.672-.017.553.053-.207.121-1.323.182-1.323.073zm-8.46.696c0-.03.347-.086.77-.126.424-.04.673-.016.554.053-.207.121-1.323.183-1.323.073zm-6.92.881c0-.068.26-.087.576-.043.318.044.577.026.577-.04 0-.065.433-.128.962-.139.528-.01.96.044.96.122 0 .084.227.073.557-.026.4-.12.753-.126 1.25-.021.651.137.647.147-.076.165-3.794.092-4.806.089-4.806-.018zm-10.347.018a4.122 4.122 0 0 0-1.154-.055c-.484.056-.503.042-.088-.065.588-.152 1.976-.064 1.976.125 0 .15-.054.15-.734-.006zm1.119.128c0-.076.302-.143.672-.149.572-.008.557-.026-.096-.122-.714-.104-.7-.116.193-.167.528-.03 1.65-.012 2.494.04.843.052 1.826.038 2.185-.032.36-.07.967-.122 1.351-.116.412.007.146.092-.647.21l-1.346.197 1.262-.046c.833-.03 1.132 0 .88.092-.511.185-4.006.157-4.181-.034-.077-.083-.309-.151-.515-.151-.206 0-.28.056-.162.124.117.069-.06.163-.394.209-.912.127-1.696.101-1.696-.055zm54.111.187c.26-.038.78-.04 1.154-.005.374.035.16.066-.474.07-.634.002-.94-.027-.68-.065zm-3.723 3.158c-.308-.07-1.086-.099-1.73-.064-1.129.062-1.137.059-.221-.085 1.013-.16 3.706-.058 4.068.154.282.165-1.392.161-2.117-.005zm-7.888-.002c-.57-.075-.336-.12.945-.182.936-.046 1.969-.021 2.295.054.456.105.396.117-.258.052-.468-.046-1.16-.025-1.538.046a5.516 5.516 0 0 1-1.444.03zm-19.71 1.858c.127-.046.459-.051.736-.01.307.044.216.076-.232.083-.405.006-.632-.027-.505-.073zm2.587.362c-.895-.103-.903-.112-.119-.125.463-.007.95.049 1.08.125.13.077.184.133.119.126l-1.08-.126zm-25.273 1.725c.127-.047.46-.052.737-.011.306.044.215.077-.233.084-.405.005-.632-.027-.504-.074zm.953.965a4.01 4.01 0 0 1 .961 0c.265.039.048.07-.48.07-.53 0-.745-.031-.481-.07zm-5.864 1.9c-.585-.09-.355-.121.962-.127.951-.004 1.99.053 2.307.127.744.174-2.15.174-3.269 0zm-1.102 2.256c-.103-.06.146-.11.554-.11.407 0 .74.05.74.11s-.249.109-.553.109c-.305 0-.639-.05-.741-.11zm21.481.526c-.664-.104-.624-.118.288-.1.582.012 1.058.07 1.058.13 0 .134-.345.126-1.346-.03zM9.42 56.749c-.676-.27-.671-.278.155-.278.469 0 .746.062.617.137-.135.08.02.103.362.055.328-.045.596-.018.596.062s.476.17 1.058.203c.773.042.635.063-.517.078-1.138.016-1.768-.056-2.27-.257zm-5.563.273c.488-.112.49-.13.007-.132-.444-.001-.46-.037-.08-.174.38-.138.541-.136.79.01.196.115.797.16 1.618.122.718-.033 1.003-.033.633 0-.37.033-.674.103-.675.155 0 .052-.644.107-1.43.121-1.007.02-1.261-.01-.863-.102zm23.674.32c-.411-.148-3.336-.444-3.114-.314.261.153-.561.237-1.924.196-.634-.02-1.759-.044-2.499-.055-1.23-.018-1.269-.031-.455-.15.49-.07 1.649-.147 2.575-.168.925-.022 1.808-.085 1.96-.14.457-.166 1.591-.114 1.799.081.202.19 2.721.515 3.97.511.609-.002.633-.023.148-.137-.437-.102-.275-.135.673-.137.857-.001 1.25.064 1.25.207 0 .115-.27.209-.6.209-.368 0-.494-.068-.328-.174.217-.14.168-.14-.246 0-.561.188-2.752.237-3.21.072zm-2.05.019c.128-.047.46-.052.737-.011.307.044.216.077-.232.084-.405.005-.632-.027-.505-.073zm14.996.417c.128-.046.46-.051.737-.011.307.044.215.077-.232.084-.406.006-.633-.027-.505-.073zm-25.481.084c-.467-.11-.412-.135.288-.137.476-.002.865.06.865.137 0 .174-.408.174-1.153 0zm-1.819.055c.128-.046.46-.051.737-.011.307.044.216.077-.232.084-.405.006-.633-.027-.505-.073zm14.027.131a4.01 4.01 0 0 1 .96 0c.265.039.049.07-.48.07-.528 0-.745-.031-.48-.07zm-5.568.008c.128-.046.46-.051.737-.01.307.044.216.076-.232.083-.405.006-.632-.027-.505-.073zm-19.519.086c-.134-.08.02-.102.362-.055.666.093.788.192.235.192-.199 0-.467-.062-.597-.137zm19.03.541c0-.11 5.797-.022 6.118.094.112.04-1.218.058-2.956.04-1.739-.019-3.161-.079-3.161-.134zm-5.094.06a4.01 4.01 0 0 1 .961 0c.265.04.048.07-.48.07-.53 0-.745-.03-.481-.07zM0 64.764c0-.03.346-.086.77-.126.423-.04.672-.016.554.053-.207.122-1.324.183-1.324.073zm1.538 2.28c-.792-.093-.826-.114-.192-.124.423-.007 1.028.049 1.345.123.674.158.206.158-1.153 0zm5.383 2.78c0-.076.39-.137.865-.136.7.002.755.028.289.137-.746.174-1.154.174-1.154 0zm11.255 1.586c.127-.046.46-.051.737-.011.306.044.215.077-.233.084-.405.006-.632-.027-.504-.073zm724.3 3.84c0-.077.172-.14.384-.14.211 0 .384.063.384.14 0 .076-.172.139-.384.139-.211 0-.385-.063-.385-.14zm33.643.973c.13-.076.411-.139.622-.139.212 0 .278.063.148.14-.132.076-.41.138-.622.138-.211 0-.278-.062-.148-.139zm-347.206.696c-.485-.076-.556-.12-.192-.12.317 0 .922.054 1.345.12.485.075.556.12.193.12-.317 0-.923-.055-1.346-.12zM302.676 4.078c-.278-.041-.61-.036-.737.01-.128.046.1.08.505.073.448-.006.539-.04.232-.084zm1.377.79c-.554-.321-1.45-.371-1.45-.081 0 .197.541.327 1.446.348.388.009.388-.044.007-.267h-.003zm1.05.695c-.13-.076-.4-.139-.6-.139-.198 0-.361.063-.361.14 0 .076.27.138.6.138.329 0 .492-.062.361-.139zm-1.73-.086c0-.194-.097-.2-.673-.04-.37.103-.745.204-.833.226-.088.022.215.04.673.04.512 0 .833-.088.833-.226zm94.78.503c.13-.076.065-.139-.147-.139-.211 0-.491.063-.622.14-.13.076-.065.139.147.139.211 0 .491-.063.622-.14zm-43.064 0c.13-.076-.13-.139-.577-.139-.448 0-.708.063-.577.14.13.076.39.139.577.139.187 0 .446-.063.577-.14zm-11.343 0c0-.076-.173-.139-.385-.139-.211 0-.384.063-.384.14 0 .076.173.139.384.139.212 0 .385-.063.385-.14zm-28.261 0c-.13-.076-.41-.139-.622-.139-.212 0-.278.063-.147.14.13.076.41.139.622.139.211 0 .278-.063.147-.14zm-10.574.07c-.263-.115-.674-.207-.912-.204-.239.002-.098.096.312.208.96.263 1.208.261.6-.004zm44.987.209c0-.077-.173-.14-.385-.14-.211 0-.384.063-.384.14 0 .076.173.139.384.139.212 0 .385-.063.385-.14zm-20.763-.014c.44-.113.32-.127-.518-.061-.658.052-1.347.015-1.73-.093-.569-.16-.58-.154-.109.063.597.275 1.504.31 2.357.091zm4.686.197c-.278-.04-.61-.035-.737.01-.128.047.099.08.504.074.448-.007.54-.04.233-.084zm19.537.234c0-.076-.173-.14-.384-.14-.212 0-.385.064-.385.14 0 .077.173.14.385.14.211 0 .384-.064.384-.14zm-11.15-.078c0-.033-.173-.061-.385-.061-.211 0-.384.066-.384.147 0 .081.173.109.384.062.212-.048.385-.114.385-.148zm-15.957.078c.13-.076.155-.14.054-.14-.1 0-.459-.037-.796-.084-.448-.062-.549-.025-.375.139.27.254.764.291 1.117.085zm-16.494-.101c-.128-.047-.219.036-.202.182.018.162.11.195.233.084.11-.1.097-.22-.031-.266zm-10.421.518c-.131-.076-.411-.139-.623-.139-.211 0-.277.063-.146.14.13.076.41.138.622.138.211 0 .277-.062.147-.139zm-2.5 0c0-.076-.183-.139-.407-.139-.224 0-.3.063-.17.14.131.076.314.138.408.138.093 0 .17-.062.17-.139zm89.068.07c-.317-.115-.697-.209-.844-.209-.147 0-.051.094.212.209.263.115.643.209.844.209.2 0 .105-.094-.212-.21zm-2.17.031c0-.072-.248-.096-.552-.054-.303.042-.61.014-.68-.062-.074-.08-.454-.094-.89-.034-.707.099-.693.112.2.191 1.37.121 1.922.11 1.922-.04zm-17.157-.176c.113-.107.04-.23-.163-.276-.567-.127-.435-.344.21-.344.317 0 .576-.052.576-.116 0-.248-.481-.269-1.186-.05-.896.277-1.057 1.175-.19 1.055.302-.042.64-.163.753-.27zm-8.658-.03c-.06-.21.023-.46.186-.555.164-.096.198-.232.077-.303-.122-.071.17-.16.65-.195.479-.037.179-.057-.667-.045-1.332.018-1.534.063-1.508.334.018.172-.156.315-.384.318-.229.002-.026.122.45.265.476.144.865.33.865.413 0 .083.1.152.221.152.122 0 .172-.173.11-.383zm-4.753.244c.13-.076.064-.139-.147-.139s-.491.063-.622.14c-.13.076-.065.138.147.138.211 0 .491-.062.622-.139zm52.596-.139a.753.753 0 0 0-.54-.278c-.465 0-.43.242.05.35.216.047.276.155.134.238-.146.085-.081.11.15.06.224-.05.317-.217.206-.37zm-52.332.6c-.277-.04-.609-.034-.737.012-.127.046.1.079.505.073.448-.007.539-.04.232-.084zm-6.996-.67c-.206-.09-.26-.205-.122-.255.14-.05.052-.092-.195-.092s-.449.087-.449.193c0 .118-.528.216-1.346.25-.954.041-1.345.003-1.345-.131 0-.104-.157-.154-.349-.111-.2.044-.16.223.096.419.339.26.651.323 1.31.263.505-.046.865-.015.865.075 0 .084.43.018.955-.147.66-.208.84-.351.58-.464zm17.114.766c.13-.077.067-.14-.142-.14s-.443-.109-.522-.243c-.1-.168-.21-.125-.36.14-.216.382.497.551 1.023.243zm-2.115-.014c0-.069-.216-.126-.48-.127-.31-.002-.34-.039-.084-.105.484-.124.509-.867.03-.867-.189 0-.553-.104-.81-.231-.293-.145-.72-.196-1.143-.138-.55.077-.588.133-.201.301.261.114.371.207.245.207s-.071.15.122.335c.303.289.223.346-.586.42-1.605.146-1.03.342.984.337 1.058-.003 1.923-.062 1.923-.132zm-22.971.061c-.313-.046-.363-.15-.146-.302.182-.127.282-.342.223-.475-.06-.134.07-.244.29-.244.237 0 .204-.084-.082-.208-.39-.17-.37-.21.113-.21.326 0 .665.08.754.175.126.135.303.131.802-.018.4-.12 1.072-.16 1.793-.107 1.356.098 1.416.042.383-.36-.423-.164-.769-.224-.769-.133s-.27.166-.6.166c-.329 0-.505-.055-.392-.121.43-.252-3.038-.097-3.625.16-.739.326-1.913.19-1.64-.187.232-.321-.143-.336-1.87-.072l-1.293.198 1.082.15c.596.082 1.255.15 1.465.15.21 0 .3.048.201.106-.32.188.73.568 1.502.544.9-.029 1.293.575.494.758-.345.079-.134.115.639.109.634-.005.938-.04.676-.079zm-40.857-.047c0-.077-.183-.14-.407-.14-.224 0-.3.063-.17.14.131.076.314.139.408.139.093 0 .17-.063.17-.14zm51.475.15c.397-.009.422-.057.1-.198-.522-.227-.19-.37.859-.37.608 0 .679-.036.32-.166-.254-.092-.461-.273-.461-.401 0-.13-.364-.269-.81-.311-.687-.065-.781-.026-.63.262.1.186.01.338-.196.338-.207 0-.283.13-.17.287.128.176-.006.316-.339.363-.779.108-.679.309.126.253.37-.026.91-.052 1.2-.057zm-2.258-.089c0-.034-.173-.061-.385-.061-.211 0-.384.066-.384.147 0 .081.173.109.384.061.212-.047.385-.113.385-.147zm-17.224.09c.98-.082 1.487-.07 1.624.039.11.087.16.001.112-.19-.062-.248.216-.417.972-.59 1.328-.302 1.387-.558.1-.441-.526.047-1.732.097-2.68.11-2.01.027-2.88.246-2.183.55.248.108.343.298.211.423-.273.257-.126.265 1.844.1zm-13.537-.077c0-.125.226-.173.578-.124.804.111 2.58-.068 2.3-.232-.127-.075-.008-.14.272-.146.387-.009.392-.028.023-.082-.968-.14-.495-.445.673-.433 1.046.01 1.737.247.722.247-.299 0-.284.065.047.21.263.114.696.208.961.208s.698-.094.961-.209c.392-.17.366-.209-.145-.209-.343 0-.624-.093-.624-.208 0-.115.13-.209.289-.209.52 0 2.448.974 2.208 1.115-.256.15-.185.16 1.594.214 1.057.032 1.2-.004 1.153-.297-.04-.25-.22-.314-.726-.256-.492.057-.673 0-.673-.21 0-.158-.16-.288-.357-.288-.196 0-.632-.1-.969-.221a5.424 5.424 0 0 0-1.277-.26c-.407-.022-.624-.139-.56-.3.093-.229.058-.233-.278-.037-.25.146-.722.201-1.349.158-.53-.037-1.27-.018-1.644.041-.858.137-1.118.163-1.832.185-.318.01-.577.083-.577.164s.144.115.32.076c.176-.04.32.017.32.125s-.221.227-.492.265c-.309.043-.413-.008-.28-.133.14-.132-.033-.201-.5-.2-1.112.004-1.822.218-1.442.435.352.2.411.274.488.606.062.27.817.274.817.005zm76.73.077c-.442-.259-.921-.166-.703.136.136.188.339.24.584.151.207-.074.26-.204.118-.287zm-54.044.266c0-.076-.173-.139-.384-.139-.212 0-.385.063-.385.14 0 .076.173.138.385.138.211 0 .384-.062.384-.139zm-38.45.008c0-.072-.144-.163-.32-.202-.177-.04-.321.02-.321.13 0 .112.144.203.32.203.176 0 .32-.059.32-.13zm65.75.131c0-.076-.173-.139-.385-.139-.211 0-.384.063-.384.14 0 .076.173.138.384.138.212 0 .385-.062.385-.139zm-22.58-.13c.227-.315.007-.427-.843-.424-.488.002-.505.026-.087.122.364.083.393.148.096.214-.597.134-.53.357.107.357.292 0 .62-.121.727-.27zm41.856.109c.803-.335.864-.396.392-.396-.542 0-1.985.509-1.718.605.386.14.554.113 1.326-.209zm-29.58-.225c.68-.507.348-1.33-.462-1.143-.317.073-.404.135-.193.137.22.003.2.049-.044.107-.585.14-1.064.728-.592.728.207 0 .33.155.272.344-.127.418.328.34 1.018-.173zm121.497.569c-.277-.04-.609-.036-.737.01-.127.047.1.08.505.074.448-.007.539-.04.232-.084zm-131.29-.002c-.375-.035-.894-.033-1.154.005-.26.038.045.067.68.064.634-.003.847-.034.473-.07v.001zm7.076.111c-.442-.101-.442-.13 0-.187.289-.037.42-.109.291-.16-.128-.05-.522-.051-.875-.002-.498.069-.543.132-.2.281.243.106.637.192.875.19.254-.001.217-.051-.09-.122zm-26.102-.05a.429.429 0 0 1-.096-.251c0-.081-.176-.108-.391-.06-.215.048-.291.146-.17.217.122.071.038.13-.186.13s-.407-.063-.407-.14c0-.076-.427-.139-.95-.139-.64 0-.884.062-.749.189.208.196 3.129.25 2.948.055zm12.592.097c0-.034-.173-.062-.384-.062-.212 0-.385.067-.385.148 0 .08.173.108.385.061.211-.047.384-.114.384-.147zm-2.82-.141c0-.11-.144-.199-.32-.199-.176 0-.32-.118-.32-.263 0-.145-.26-.3-.577-.343-.665-.093-.788.125-.151.268.304.068.292.125-.042.2-.726.161-.108.679.719.6.38-.035.691-.154.691-.263zm297.421.402c-.277-.04-.609-.036-.736.01-.128.047.1.08.504.074.448-.007.54-.04.232-.084zm-256-.125c.42-.396.221-.55-.355-.275-.31.149-.565.32-.565.383 0 .199.68.12.92-.108zm-67.96-.616c-.165-.38-.103-.408.752-.33.79.072.89.045.663-.174-.233-.225-.186-.235.357-.075.708.208.488.58-.344.58-.376 0-.504.121-.409.383.104.284.38.393 1.071.421.81.034.844.02.258-.111-.72-.16-.926-.553-.289-.553.212 0 .385.067.385.148 0 .088.356.112.865.06.513-.052.678-.04.405.03-.761.194-.01.416 1.037.307.529-.055.76-.106.515-.114-.482-.015-.483-.256 0-.535.192-.112.084-.174-.3-.174-.33 0-.599.062-.599.139 0 .235-.544.146-1.248-.204-.61-.303-.616-.354-.069-.552.35-.126.42-.218.168-.218-.239 0-.328-.062-.197-.139.157-.092-.102-.092-.772 0-1.302.18-1.342.178-1.342-.07 0-.114-.173-.208-.385-.208-.211 0-.384.081-.384.18 0 .127-.633.18-2.115.176-1.5-.002-2.115-.058-2.115-.19 0-.122.263-.155.77-.097.44.051.768.025.768-.06 0-.081-.336-.148-.746-.148-.99 0-1.369-.24-.508-.321.413-.04.256-.07-.403-.08-.681-.01-.985.039-.824.133.282.165-.775.575-1.877.727-1.017.14-.557.448.645.43.562-.008 1.022.001 1.022.02 0 .02-.606.166-1.346.324-1.496.32-1.752.575-.577.575.528 0 .77-.093.77-.295 0-.25.09-.268.593-.117.327.098.513.255.414.349-.12.112.08.146.58.098.459-.043.68-.15.555-.267-.114-.108.06-.233.385-.278.326-.045.499-.17.384-.278-.287-.271.52-.35 1.894-.186 1.127.135 1.13.137.097.089-1.34-.063-1.363.095-.047.311.556.092.9.208.763.257-.137.05-.433.023-.66-.059-.467-.169-1.883-.076-1.883.123 0 .073.322.096.715.05.412-.047.92.008 1.2.13.395.172.387.213-.042.216-.351.003-.277.074.224.21.665.182.79.182 1.08-.006.18-.117.247-.399.147-.627zm58.197.767c0-.115-.183-.209-.407-.209-.224 0-.309.058-.188.129.12.07-.085.157-.458.192-.515.049-.47.068.188.08.532.01.865-.064.865-.192zm-32.503.118c-.762-.201-1.396-.19-1.597.03-.066.071.43.137 1.101.146 1.128.015 1.166.002.496-.176zm-25.845.137a4.01 4.01 0 0 0-.962 0c-.264.039-.048.07.481.07s.745-.031.48-.07zm-2.02-.038c0-.072-.143-.164-.32-.203-.176-.04-.32.02-.32.13 0 .112.144.203.32.203.177 0 .32-.058.32-.13zm374.315.13c-.13-.076-.314-.139-.407-.139-.094 0-.17.063-.17.14 0 .076.183.139.406.139.225 0 .3-.063.17-.14zm-429.12.009c.123-.072-.127-.121-.554-.11-.428.012-.778.07-.778.131 0 .154 1.062.137 1.332-.021zm427.077.175c-.278-.04-.61-.036-.737.01-.127.047.1.08.505.074.447-.007.539-.04.232-.084zm-10.838-.044c0-.077-.303-.139-.673-.137-.575.002-.59.021-.096.137.726.17.77.17.77 0h-.001zm-5.768.085c0-.029-.346-.086-.77-.126-.423-.04-.672-.016-.553.054.206.12 1.323.182 1.323.072zm-6.77-.166c.321-.303.3-.337-.216-.337-.246 0-.334.041-.195.092.139.05.06.175-.175.278-.27.117-.283.187-.038.187.213 0 .495-.1.623-.22h.001zm-32.064.08c0-.076-.185-.139-.408-.139-.225 0-.3.063-.17.14.132.076.314.139.407.139.093 0 .17-.063.17-.14zm-273.382-.054c0-.107-.26-.23-.577-.274-.392-.054-.577.007-.577.194 0 .15.26.274.577.274.317 0 .577-.088.577-.194zm12.112.194c-.131-.077-.314-.14-.408-.14-.093 0-.17.063-.17.14 0 .076.184.139.408.139.224 0 .3-.063.17-.14zm-9.982-.13c-.139-.082-.546-.147-.903-.144-.571.003-.56.03.09.207.79.216 1.232.182.813-.063zm-3.853-.14c-.14-.16-.404-.258-.585-.217-.182.04-.436.012-.565-.063-.13-.076.238-.18.816-.233 1.018-.092 1.024-.1.208-.208-.464-.062-.843-.209-.843-.326 0-.236-.21-.248-1.346-.08-.706.106-.713.123-.096.214.775.115.905.57.193.673-.287.042-.21.075.192.081.37.006.673.074.673.15 0 .077.26.14.577.14.317 0 .576.073.576.162 0 .09.103.125.228.08s.112-.213-.027-.373h-.001zm337.937.464c.828-.115.374-.336-.662-.322-.463.006-.625.042-.36.081.266.039.386.128.266.198-.254.148-.077.158.756.043zm-358.455-.138c.709-.159-.486-.613-1.612-.613-1.195 0-1.55.23-.565.367.316.044.471.14.345.214-.126.073-.465.1-.754.06-.29-.04-.644-.003-.79.082-.186.11.222.126 1.394.058.91-.052 1.803-.128 1.982-.168zm-6.02-.613c-.13-.076-.055-.139.17-.139.223 0 .407.063.407.14 0 .076-.077.138-.17.138-.093 0-.277-.062-.407-.139zm.654.728c-.39-.047-.362-.137.134-.41.533-.294.55-.38.113-.538-.594-.215-2.376-.107-1.987.12.155.092.011.114-.379.06a2.021 2.021 0 0 0-1.154.184c-.766.396-1.101.168-.437-.297.502-.35.5-.386-.014-.315-.318.044-.49.132-.383.195.108.063-.137.152-.544.2-.406.046-.843.182-.97.303-.16.15-.062.195.315.142.302-.041 1.149.035 1.883.17.734.136 1.916.247 2.628.247.712 0 1.07-.028.794-.06zm-4.5-.032c.301-.176-.208-.176-.96 0-.498.116-.487.135.073.137.358.001.757-.06.888-.137zm-1.858-.377c0-.221-.72-.234-1.303-.023-.32.115-.319.2.007.325.493.191 1.298.004 1.298-.302h-.002zm39.36.418c.508.048.687-.006.648-.196-.03-.144-.234-.264-.454-.265-.22-.001-.139-.062.178-.137.513-.12.513-.135 0-.139-.494-.003-.498-.022-.025-.13.458-.105.466-.164.05-.346a3.32 3.32 0 0 0-1.11-.22c-.472 0-.504.038-.145.168.58.21.606.438.036.31-.287-.064-.341.002-.167.2.175.2.094.297-.247.299-.376.001-.358.04.07.15.45.115.346.134-.48.086-1.169-.067-1.152-.072-.827.234.181.171.395.186 1 .069a6.252 6.252 0 0 1 1.473-.083zm-21.16.098c0-.077-.27-.14-.6-.14-.33 0-.492.063-.361.14.13.076.4.139.6.139.198 0 .361-.063.361-.14zm18.072.139c0-.077-.26-.14-.577-.14-.317 0-.577.063-.577.14 0 .076.26.139.577.139.317 0 .577-.063.577-.14zm-2.991.061c-.473-.12-1.069-.169-1.332-.11-.323.072-.169.137.482.203 1.562.157 1.753.136.85-.093zm-95.827.03c0-.102.433-.257.962-.344.947-.156 1.381-.72.554-.72-.224 0-.284.071-.133.16.166.097.106.123-.152.065-.234-.052-.867-.055-1.405-.006-.977.088-1.226.36-.746.812.284.268.92.291.92.034zm342.665.231c-.278-.04-.61-.035-.737.011-.128.046.1.08.504.073.448-.006.54-.04.233-.084zm-235.477-.183a2.524 2.524 0 0 0-1.061-.28c-.515-.003-.516-.02-.007-.152.464-.12.409-.135-.282-.08-.729.057-.802.03-.487-.183.305-.207.244-.24-.347-.183-.47.044-.654.155-.534.321.1.14-.05.282-.333.318-.284.035-.036.042.551.015.711-.032 1.286.043 1.72.227.847.358 1.396.356.776-.003h.004zm-10.581.325a4.01 4.01 0 0 0-.961 0c-.265.039-.048.07.48.07.529 0 .745-.031.48-.07zm-6.366-.414c-.135-.049-.152-.144-.038-.21.246-.145.924-.02.924.168 0 .15-.52.174-.886.042zm-.406.298c-.247-.234-.184-.245.682-.125.334.046.512.14.396.207-.115.068.057.086.385.04.327-.045.509-.132.404-.193-.105-.062.144-.08.553-.042 1.241.118.517-.473-.781-.636-1.414-.179-1.451-.324-.057-.224 1.04.074 1.042.073.122-.072a7.15 7.15 0 0 0-1.976-.016c-.702.089-1.18.082-1.462-.02-.498-.18-.698-.127-.877.237-.095.191.144.293.828.354.833.074.869.098.264.182-.73.101-.552.379.24.375.275-.002.227-.056-.12-.137-.492-.115-.478-.135.097-.137.37-.001.673.092.673.207 0 .114.191.208.425.208.234 0 .326-.094.204-.208zm-5.881-.008c-.18-.17-.032-.198.685-.133.673.06 1.047.003 1.422-.217.315-.184.342-.26.07-.2-.26.059-.524-.02-.65-.194-.116-.16-.32-.29-.454-.29-.485.004-1.13.21-1.072.342.033.074-.373.214-.902.31-.739.136-.8.177-.266.179.383.001.598.059.479.129-.181.105.02.173.832.279.047.006-.02-.086-.144-.205zm-83.497.12c-.277-.04-.61-.034-.737.012-.128.046.1.08.505.073.448-.007.539-.04.232-.084zm103.356.1c.37-.085.439-.175.192-.256-.23-.075-.645-.022-1.054.134-.725.277-.164.356.862.122zm-9.994-.146c0-.06-.346-.077-.769-.037-.423.04-.769.122-.769.182s.346.077.77.037c.422-.04.768-.122.768-.182zm-91.687.152c-.378-.222-.987-.041-.718.212.148.14.357.167.603.078.208-.075.26-.206.115-.29zm-6.746.272c0-.074-.26-.098-.576-.054-.318.044-.577.104-.577.135 0 .03.26.054.577.054.317 0 .576-.06.576-.135zm-2.307-.004c-.467-.109-.415-.135.277-.137.569-.001.784-.066.648-.195-.126-.118-.518-.164-1.014-.117-.637.06-.757.028-.564-.154.324-.306.052-.292-.885.047-.423.153-.583.278-.357.278.227 0 .672.094.99.209.316.115.78.207 1.03.206.265-.001.213-.058-.125-.137zm109.968.225c0-.03-.51-.081-1.133-.114s-1.046-.009-.939.054c.191.111 2.072.166 2.072.06zm-104.969-.094c0-.08-.173-.108-.385-.061-.211.047-.384.113-.384.147 0 .034.173.062.384.062.212 0 .385-.067.385-.148zm-18.73-.13c-.11-.154-.337-.279-.504-.279-.167 0-.213.125-.102.278.11.153.337.279.504.279.168 0 .213-.126.103-.279zm11.04.905c0-.037-.295-.192-.655-.345-.438-.185-.744-.225-.921-.121-.146.085-.802.162-1.459.17-1.179.016-1.438.09-.938.271.292.106 3.973.129 3.973.025zm546.066.39c-.277-.04-.609-.035-.737.011-.127.047.1.08.505.073.448-.006.54-.04.232-.084zm-5.743 2.368a4.011 4.011 0 0 0-.962 0c-.264.038-.047.07.481.07.529 0 .745-.032.48-.07zm24.2 3.335c-.278-.04-.61-.035-.738.011-.127.046.1.08.505.073.448-.006.54-.04.232-.084zm6.151 5.564c-.277-.04-.609-.036-.736.01-.128.047.1.08.504.074.448-.007.54-.04.232-.084zm-1.537 0c-.278-.04-.61-.036-.737.01-.128.047.1.08.504.074.448-.007.54-.04.233-.084zm-6.537 0c-.278-.04-.61-.036-.737.01-.127.047.1.08.505.074.448-.007.539-.04.232-.084zm8.074.278c-.277-.04-.609-.035-.736.01-.128.047.1.08.504.074.448-.007.54-.04.232-.084zM64.981 28.792c0-.076-.173-.139-.384-.139-.212 0-.385.063-.385.14 0 .076.173.138.385.138.211 0 .384-.062.384-.139zm747.858 7.648c.318-.014-.097-.083-.923-.153-1.543-.131-2.005-.096-1.63.123.192.113.577.117 2.553.03zm2.555.21c.512-.185.488-.208-.22-.208-.452 0-.797.09-.797.209 0 .115.097.209.22.209.12 0 .48-.094.797-.21zm-12.48.393c-.277-.04-.609-.036-.737.01-.127.047.1.08.505.074.448-.007.539-.04.232-.084zm-755.167.187c-.576-.093-.99-.093-1.247 0-.257.093.03.14.862.14 1.15 0 1.18-.011.385-.14zm-6.775-.027c-.41-.112-.92-.204-1.13-.204-.212 0-.05.092.361.204.41.112.92.204 1.131.204.212 0 .049-.092-.362-.204zm-6.655.112c-.687-.03-1.812-.03-2.5 0-.687.031-.124.056 1.25.056 1.375 0 1.937-.025 1.25-.056zm3.364.016c0-.03-.356-.054-.791-.054-.436 0-.69.06-.565.133.205.12 1.356.053 1.356-.078zm31.042.962c-.374-.035-.894-.033-1.154.005-.26.038.046.067.68.064.635-.002.848-.034.474-.069zm717.658 1.531c-.278-.04-.61-.035-.737.011-.127.047.1.08.505.074.447-.007.538-.04.232-.085zm-713.71.663c.808-.017.86-.041.326-.154-.706-.149-4.256-.02-3.975.145.098.058.743.087 1.433.067.69-.021 1.687-.047 2.216-.058zm727.864.769c0-.132-1.15-.199-1.356-.079-.125.074.13.133.564.133.436 0 .792-.024.792-.054zm-1.922.193c0-.076-.26-.139-.577-.139-.317 0-.577.063-.577.14 0 .076.26.139.577.139.317 0 .577-.063.577-.14zm-729.787.549c0-.081-.173-.109-.384-.062-.212.048-.385.114-.385.148 0 .033.173.06.385.06.211 0 .384-.065.384-.146zm-2.844-.233c-.127-.046-.218.036-.202.183.019.162.11.195.233.084.11-.1.097-.22-.03-.267zm728.113.566a4.01 4.01 0 0 0-.961 0c-.265.039-.048.07.48.07.529 0 .745-.031.48-.07zm-741.034.231c0-.076-.302-.138-.672-.137-.575.003-.59.022-.097.137.726.17.77.17.77 0zm-7.209.047a4.01 4.01 0 0 0-.961 0c-.265.039-.048.07.48.07.53 0 .745-.031.481-.07zm23.046.276c-.277-.04-.61-.036-.737.01-.127.047.1.08.505.074.448-.007.539-.04.232-.084zm-5.359.002a4.01 4.01 0 0 0-.961 0c-.264.039-.048.07.48.07.53 0 .745-.031.481-.07zm-4.133-.047c-.13-.077-.506-.14-.833-.14-.35 0-.51-.079-.39-.192.142-.134-.017-.172-.523-.124-.591.056-.634.102-.232.247.272.099.828.21 1.236.247.408.038.795.076.86.085.066.009.012-.047-.118-.123zm772.37.186a4.011 4.011 0 0 0-.961 0c-.264.039-.048.07.48.07.53 0 .745-.031.481-.07zm-794.095.092c-1.374-.16-1.922-.16-1.922 0 0 .077.649.133 1.442.125 1.287-.012 1.338-.026.48-.125zm12.295.066c-.353-.154-3.068-.107-3.065.054 0 .049.768.09 1.705.092 1.176.003 1.598-.043 1.36-.146zm19.931.082c.097-.104-.048-.157-.336-.122-.278.034-.58.143-.673.244-.096.104.048.156.337.121.277-.033.58-.143.672-.243zm-1.635.117c.1-.059-.027-.153-.282-.21-.255-.057-.532-.03-.615.06-.083.09-.504.163-.935.163-.653 0-.704-.035-.305-.208.41-.18.292-.207-.819-.198-.713.007-1.08.043-.816.081.759.11.562.3-.384.37-.476.036.224.061 1.555.057 1.33-.004 2.501-.057 2.601-.115zm-23.038-.056c-.64-.232-1.585-.254-2.746-.063-.557.091-.384.104.628.047.827-.047 1.504-.017 1.657.073.143.083.434.151.649.151.214 0 .13-.094-.188-.208zm16.965.155c-.366-.1-.554-.224-.416-.273.137-.05.048-.09-.199-.09-.483 0-.612.31-.192.463.141.05.53.09.865.088.528-.003.52-.029-.058-.188zm-3.154-.317c-.724-.09-2.151-.134-3.17-.095-2.14.08-3.801.145-4.352.17-.211.01-.384.067-.384.128s.675.108 1.5.105c.824-.004 1.403-.064 1.286-.133-.122-.072.387-.091 1.184-.044.77.045 1.5.022 1.625-.05.124-.073.39-.096.59-.051.2.045.264.14.143.21-.122.072-.048.13.163.13.212 0 .492-.062.622-.139.387-.226.958-.158.702.084-.207.194-.133.199.587.036.803-.181.792-.19-.495-.35zm-3.292.37c-.753-.176-1.262-.176-.961 0 .13.077.53.138.888.137.56-.002.57-.02.073-.137zm-11.848.044c-.277-.04-.609-.035-.737.011-.127.047.1.08.505.073.448-.006.54-.04.232-.084zm-13.457 0c-.278-.04-.61-.035-.737.011-.128.047.1.08.505.073.447-.006.539-.04.232-.084zm5.383.14c-.278-.04-.61-.036-.737.01-.128.047.1.08.505.074.448-.007.539-.04.232-.084zm.697 2.103c0-.034-.173-.061-.385-.061-.211 0-.384.066-.384.147 0 .081.173.109.384.061.212-.047.385-.113.385-.147zm784.386 1.052c0-.077-.173-.14-.385-.14-.211 0-.384.063-.384.14 0 .076.173.139.384.139.212 0 .385-.063.385-.14zM61.208 50.117c-.277-.04-.61-.035-.737.01-.128.047.1.08.505.074.448-.007.539-.04.232-.084zm748.94.234c0-.077-.303-.138-.673-.137-.575.002-.589.022-.096.137.726.17.77.17.77 0h-.001zm-1.154.25c0-.142-1.582-.14-2.205.003-.282.064.07.109.865.109.737 0 1.34-.05 1.34-.112zM36.6 50.812c-.278-.04-.61-.035-.737.011-.128.046.1.08.505.073.448-.006.539-.04.232-.084zm769.703.18c0-.03-.26-.091-.577-.135-.317-.044-.577-.02-.577.055 0 .074.26.134.577.134.317 0 .577-.024.577-.054zM28.26 50.907c.133-.077-.155-.138-.65-.137-.714.002-.775.029-.311.137.715.167.675.167.961 0zm779.439.235c.367.051.46.004.296-.15-.33-.312-.818-.28-1.342.09-.354.248-.347.279.034.15.263-.09.719-.13 1.013-.09h-.001zM25.596 53.277c-.676-.087-2.526-.035-2.526.072 0 .024.736.04 1.634.035 1.089-.007 1.387-.043.892-.107zm-5.217.412c.317-.074.403-.135.192-.135-.211 0-.644.06-.961.135-.317.074-.404.135-.193.135.212 0 .644-.06.962-.135zm25.377 2.643c0-.077-.173-.14-.385-.14-.211 0-.384.063-.384.14 0 .076.173.139.384.139.212 0 .385-.063.385-.14zm-9.613 3.956c0-.034-.27-.062-.6-.062-.329 0-.49.064-.357.142.22.128.957.067.957-.08zm14.933.982c-.105-.038-.653-.083-1.218-.1-.564-.017-1.026-.08-1.026-.14 0-.06-.144-.108-.32-.108-.177 0-.32.094-.32.209 0 .15.426.208 1.537.208.846 0 1.452-.031 1.347-.069zm-5.512.208c-.131-.076-.477-.139-.77-.139-.292 0-.638.063-.768.14-.136.078.195.138.769.138.573 0 .904-.06.769-.139zm-9.997.696c.141-.083-.277-.134-1.035-.125-1.196.013-1.215.02-.311.125.528.061.994.117 1.034.125.04.007.18-.049.312-.125zm-4.999.695c-.13-.076-.314-.139-.407-.139-.093 0-.17.063-.17.14 0 .076.183.138.407.138.224 0 .3-.062.17-.139zm2.307.14c-.13-.077-.314-.14-.407-.14-.093 0-.17.063-.17.14 0 .076.183.138.407.138.224 0 .3-.062.17-.139zm-20.812 3.17c-.264-.155-1.297-.139-1.297.02 0 .071.334.121.742.11.409-.011.658-.07.555-.13zm.313.35c-.277-.04-.609-.034-.737.012s.1.079.505.073c.448-.007.539-.04.232-.084zm-2.763.366c0-.081-.173-.109-.385-.062-.211.048-.384.114-.384.148 0 .033.173.061.384.061.212 0 .385-.066.385-.147zm8.915.747c-.277-.04-.609-.035-.737.011-.128.047.1.08.505.073.448-.006.539-.04.232-.084zm-1.61-.044c0-.076-.356-.139-.792-.139-.435 0-.684.063-.554.14.131.076.487.138.792.138.305 0 .554-.062.554-.139zm-4.037.696c-.13-.077-.487-.14-.792-.14-.305 0-.554.063-.554.14 0 .076.356.139.792.139.435 0 .685-.063.554-.14zm2.307.695c-.13-.076-.477-.139-.77-.139-.291 0-.637.063-.768.14-.136.079.196.138.769.138s.904-.06.769-.139zm517.932 9.872c.158-.092-.516-.134-1.908-.118-1.735.021-2.322-.032-3.034-.274-.85-.289-1.643-.41-1.276-.195.098.057-.572.092-1.489.078-.97-.015-1.838.05-2.077.153-.315.137-.884.148-2.43.044-1.72-.115-2.665-.162-4.637-.23-.171-.006-.204-.073-.073-.15.13-.077-.193-.198-.719-.27-1.256-.173-2.562-.584-2.315-.728.107-.063-.085-.114-.427-.114-.342 0-.515.062-.385.139.131.076-.023.139-.34.139-.318 0-.884.188-1.259.417-.71.435-2.053.571-2.053.208 0-.215-.1-.207-2.211.189-.485.09-.866.104-.866.03 0-.144-2.762-.027-3.076.13-.258.13-1.538.12-1.538-.012 0-.058.217-.136.481-.175.287-.042.21-.074-.192-.08-.37-.006-.673.047-.673.118 0 .283-2.12.216-2.998-.095-.538-.19-1.363-.314-2.114-.316-.678-.002-1.965-.123-2.86-.27-1.42-.233-1.7-.242-2.184-.067-.306.11-.75.201-.99.201s-.328.063-.197.14c.137.08-.22.137-.842.136-.84-.002-.952-.032-.504-.137.596-.14.301-.19-.865-.146-.37.013-.673-.067-.673-.178 0-.208-.783-.371-1.784-.371-.313 0-.488.047-.39.104.098.057-1.283.082-3.07.055-2.81-.043-3.336-.014-3.904.215-.685.276-2.387.4-2.387.173 0-.22-.743-.144-1.435.148-.362.153-.923.277-1.246.276-.511-.002-.514-.019-.02-.131.484-.111.47-.143-.097-.222-.364-.05-.662-.173-.662-.272 0-.099-.648-.302-1.44-.45-1.385-.26-1.48-.261-2.404-.025-.529.136-1.914.286-3.077.335-1.52.063-1.952.047-1.538-.057.494-.124.476-.145-.121-.147-.789-.003-2.256.25-2.618.45-.133.074-.621.09-1.087.037-.465-.054-.757-.13-.648-.17.528-.19-1.192-.574-2.448-.546-.74.017-1.844-.057-2.454-.163-.904-.157-1.278-.16-2.013-.019a4.747 4.747 0 0 1-1.747.039c-.659-.107-1.006-.078-1.582.13-.465.169-1.078.243-1.66.203-.509-.035-.924-.01-.924.056 0 .19-.56.14-1.385-.124-.898-.287-1.691-.369-1.691-.173 0 .076-.254.139-.565.139-.31 0-.482.078-.38.174.113.107-.176.18-.757.193-.517.01-1.023-.06-1.125-.155-.117-.11-.757-.16-1.726-.135-1.05.027-1.607-.023-1.749-.156-.16-.151-.44-.165-1.215-.058-.554.076-1.209.092-1.455.034-.247-.057-1.314-.106-2.371-.108-1.058-.003-2.316-.055-2.797-.116-.61-.078-.843-.06-.77.055.248.39-.9.266-1.291-.14-.304-.315-.727-.458-1.524-.516-.607-.044-1.01-.135-.895-.202.115-.067-.06-.122-.39-.122s-.6-.05-.6-.109c0-.06-.838-.122-1.862-.138-1.645-.026-1.912.01-2.294.314-.48.38-2.13.598-2.866.378-.69-.206-2.587-.047-2.33.195.145.137-.1.194-.819.194-.564 0-.924-.058-.801-.13.498-.292-4.113-.79-5.514-.595-.454.063-.419.1.173.184.69.097.684.105-.093.114-1.21.015-2.085-.135-1.793-.306.161-.095.01-.115-.418-.055-.371.051-1.031.002-1.478-.112-.57-.144-.95-.162-1.288-.06-.264.079-1.055.148-1.757.153-.702.005-1.449.057-1.66.114-.933.254-2.94.3-3.603.084-.71-.233-3.073-.268-4.57-.069-.896.12-2.786-.098-2.786-.32 0-.066-.422-.081-.939-.034a4.155 4.155 0 0 1-1.802-.206c-.475-.16-1.015-.292-1.199-.292-.184 0-.211-.072-.06-.16.316-.185-.439-.05-1.425.255-.403.125-1.881.208-4.23.237-1.985.025-4.46.12-5.5.21-1.5.131-1.952.13-2.19-.01-.165-.097-.419-.133-.564-.08-.364.131-1.7-.145-1.7-.352 0-.093-.433-.17-.962-.17-.528 0-.96.041-.96.09 0 .193-2.046.273-2.367.093-.266-.149-.388-.147-.667.01-.188.105-.534.148-.769.096a2.445 2.445 0 0 0-.908.016c-.944.218-3.128.444-3.498.361-.208-.046-.905-.099-1.55-.117-.647-.019-1.224-.087-1.284-.152-.157-.17-7.253-.13-7.863.045-.789.226-2.552.341-2.818.185-.132-.076-.575-.14-.985-.14-.41 0-.746-.062-.746-.138 0-.077-.693-.14-1.538-.14-.846 0-1.538.063-1.538.14 0 .076-.198.139-.439.139-.24 0-.63.09-.865.2-.683.322-2.343.408-3.035.158-.333-.12-.79-.22-1.017-.22-.227 0-.412-.046-.413-.103 0-.058-.504-.117-1.119-.133a5.618 5.618 0 0 0-2.114.332c-.548.198-.996.295-.996.214 0-.132-2.94-.726-3.594-.726-.152 0-.79.19-1.417.422-.627.232-1.14.353-1.14.268 0-.087-.316-.117-.737-.068-.405.046-.833.028-.95-.04-.285-.167-4.536-.183-5.249-.02-.31.07-.422.13-.251.13.17.003.208.063.082.137-.143.084-.617.076-1.272-.022-.574-.085-2.601-.177-4.504-.203-1.904-.027-3.98-.06-4.615-.075-.634-.015-1.859.015-2.721.067-1.255.076-1.726.041-2.36-.172-.851-.287-2.416-.246-2.416.062 0 .226-1.906.361-2.759.196-.358-.07-1.105-.126-1.66-.126-.575 0-.907-.06-.772-.14.13-.076.036-.138-.21-.138-.247 0-.35-.094-.228-.209.122-.115.073-.208-.11-.208a.927.927 0 0 0-.552.208c-.122.115-.478.209-.791.209-.314 0-.708.088-.877.195-.487.31-1.265.3-4.302-.045-2.195-.25-3.393-.308-5.27-.254-1.387.04-2.482.014-2.552-.062-.067-.073-.603.028-1.19.225-1.113.373-1.797.457-1.797.22 0-.077-.26-.14-.577-.14-.317 0-.577-.055-.577-.123 0-.148-1.97-.108-2.698.055-.285.064-1.248.124-2.14.133-.893.01-1.883.095-2.2.19-.755.227-2.478.07-2.984-.272-.28-.19-.646-.24-1.294-.182-.497.045-1.02.015-1.16-.068-.356-.208-2.416-.19-2.63.024-.135.135-.343.137-.948.009a6.316 6.316 0 0 0-1.589-.089c-.533.051-.815.012-.819-.113-.007-.12-.109-.137-.288-.044-.808.417-8.234.719-7.529.306.157-.092-.12-.119-.76-.075-.591.041-.912.015-.777-.064.138-.08-.134-.096-.685-.038-.502.052-1.216.126-1.586.163-.37.037-.673.012-.673-.057 0-.068-.521-.096-1.159-.062a13.847 13.847 0 0 1-2.307-.111c-.768-.115-1.308-.127-1.629-.035-.264.076-2.21.182-4.325.236-2.115.053-4.5.118-5.3.143-.921.029-1.663-.03-2.028-.162-.51-.185-.682-.183-1.526.017-.835.198-.951.2-.951.014 0-.117-.26-.212-.577-.212-.317 0-.577-.07-.577-.155 0-.097-.338-.075-.906.06-.803.19-1.032.191-1.995.01-1.543-.29-4.82.008-4.185.379.235.138-.039.158-2.526.188-1.156.014-1.876-.049-2.17-.19-.325-.157-.573-.173-.96-.06-.31.089-.837.105-1.292.039a16.688 16.688 0 0 0-1.826-.122c-.582-.006-1.058-.065-1.058-.132 0-.129-2.082-.482-2.83-.48a15.77 15.77 0 0 0-1.299.102c-.656.077-1.089.011-1.821-.275-.781-.304-1.066-.343-1.523-.206-.722.217-5.891.295-7.034.107-.609-.1-1.308-.098-2.315.01-2.24.24-4.806.338-4.523.172.134-.078.06-.142-.164-.142s-.407.066-.407.147c0 .084-.207.1-.481.037-.641-.148-1.085-.153-2.101-.024-.469.059-.944.053-1.057-.013-.113-.066-1.806-.099-3.763-.072-1.956.026-4.142.05-4.857.054-.757.003-1.533.11-1.855.252-.305.134-.456.173-.336.085.41-.3-1.413-.348-4.903-.13-1.312.082-2.126.064-2.773-.062-.912-.176-4.968-.124-7.06.091-.648.067-.844.048-.654-.064.172-.1.07-.131-.274-.083-.301.041-.83-.027-1.176-.152-.582-.21-.728-.205-1.957.07-.999.223-1.505.262-2.043.158-.815-.158-3.16-.165-3.16-.01 0 .056-.606.128-1.347.16-.74.03-1.345.007-1.345-.055 0-.061-.346-.111-.77-.111-.422 0-.768-.093-.768-.206 0-.175-.745-.196-4.903-.14-2.696.037-5.244.083-5.662.102-.437.02-.764-.048-.769-.16-.007-.107-.348-.237-.763-.29-.83-.105-3.668.242-3.668.449 0 .075-.654.09-1.538.036-1.011-.062-1.538-.042-1.538.057 0 .236-1.812.178-2.07-.066-.128-.12-.406-.178-.619-.13-.213.047-.387.016-.387-.07 0-.095-.45-.13-1.152-.09-.633.036-1.25.009-1.369-.062-.12-.07-.658-.087-1.197-.038-.538.049-1.09.026-1.226-.051-.135-.078-1.804-.185-3.707-.24-1.904-.054-3.98-.126-4.614-.16-.635-.032-1.5-.067-1.923-.075-.423-.008-1.625-.101-2.67-.206-1.274-.128-2.03-.145-2.288-.052-.51.184-3.309.18-3.309-.004 0-.097-.252-.095-.777.007-.427.082-.946.112-1.153.066-.207-.047-.377-.008-.377.084 0 .102-.32.065-.811-.096-.657-.214-1.449-.268-4.134-.28-1.827-.01-4.014-.057-4.86-.105-.845-.05-2.49-.116-3.652-.15a84.963 84.963 0 0 1-2.307-.083c-.54-.067-4.247-.12-13.842-.198-5.816-.047-11.872-.152-13.458-.232-1.586-.08-3.922-.162-5.19-.182-1.27-.019-2.567-.07-2.885-.114-1.51-.208-3.413-.268-10.184-.32-8.605-.066-10.61-.204-11.31-.776-.374-.306-.77-.404-1.704-.424-1.243-.027-2.62-.06-3.8-.094-.421-.012-.581-.095-.44-.228.165-.156-.061-.208-.897-.208-.615 0-1.35-.078-1.635-.174-.415-.14-.464-.14-.247 0 .297.19.31.188-1.829.236-1.089.024-1.308-.002-.833-.097a5.698 5.698 0 0 1 1.382-.061c.49.046.737-.002.737-.144 0-.17.3-.196 1.442-.13.99.057 1.261.042.865-.05-.317-.073-1.269-.138-2.115-.144-.845-.007-1.884-.066-2.307-.132-.712-.11-.698-.122.193-.15.529-.018 1.434-.04 2.012-.05.579-.01 1.26-.093 1.514-.185.361-.13.19-.187-.77-.257-1.424-.103-1.68-.2-1.227-.465.198-.116 1.063-.195 2.22-.202 1.69-.01 1.874-.042 1.697-.287-.109-.15-.258-.209-.331-.13-.074.08-.952.131-1.952.114-1.27-.022-1.586.003-1.048.085.743.113.74.117-.065.127-.458.005-1.15.046-1.538.09-.667.077-.668.07-.031-.12.825-.245.858-.378.096-.378-.318 0-.577-.062-.577-.139 0-.076-.183-.139-.407-.139-.224 0-.313.056-.197.123.282.165-1.054.122-1.386-.045-.154-.077-.487-.061-.824.04-.45.135-.678.129-1.114-.029-.302-.109-.882-.229-1.29-.267-.556-.05-.485-.072.283-.084.564-.009 1.091-.087 1.17-.174.096-.103.363-.08.775.07.345.125.943.223 1.328.217.63-.009.624-.022-.069-.13-.71-.11-.698-.12.17-.128.915-.01.92-.016.193-.23-.619-.183-.634-.207-.086-.145.363.04.774.008.913-.073.172-.1.347-.093.547.024.207.121.372.084.555-.124.143-.163.421-.297.619-.297.197 0 .358-.056.358-.126s-.326-.095-.725-.057c-.4.037-.817.015-.927-.05-.111-.064.64-.122 1.668-.128 1.028-.006 2.122-.087 2.431-.18.382-.114 1.676-.15 4.038-.113 2.665.042 3.522.011 3.674-.132.136-.128-.132-.189-.847-.192-.903-.003-.953-.023-.364-.147.828-.175 1.288-.208 4.635-.338 1.89-.073 2.507-.144 2.206-.253-.23-.083-1.151-.133-2.047-.11-1.35.033-1.544.008-1.13-.145.344-.127 1.445-.177 3.556-.16 2.839.022 3.679-.078 2.625-.314-.238-.053-1.119-.096-1.957-.096-.838 0-1.317-.047-1.064-.103.343-.077.348-.128.018-.202a2.146 2.146 0 0 0-.906.038c-.527.156-1.56-.15-1.114-.329.146-.059.046-.061-.221-.005-.268.056-.388.16-.266.231.278.163.341.166-1.904-.08-2.302-.253-4.709-.27-4.971-.034-.155.14-.2.14-.224 0-.016-.096-.214-.174-.438-.174s-.327.047-.23.105c.098.057-.407.111-1.122.12-.715.01-1.207-.038-1.093-.104.113-.066.037-.12-.17-.12-.206 0-.678-.043-1.047-.094-.457-.063-.583-.041-.393.07.181.106-.027.162-.6.162h-.877l.855-.216c1.126-.286 1.083-.48-.107-.48-.528 0-.961-.047-.961-.106s1.687-.13 3.749-.157c3.912-.053 5.54-.095 5.864-.15.105-.02.581-.023 1.057-.01.476.015.865-.049.865-.14 0-.106.174-.121.48-.043.56.144 5.138.138 7.476-.009 1.43-.09 3.17-.497 2.124-.497-.217 0-.312-.116-.21-.257.138-.19.453-.242 1.214-.198.807.047.904.028.451-.089a6.158 6.158 0 0 0-1.25-.15c-.37-.001-.672-.075-.672-.164 0-.09-.114-.121-.253-.07-.14.05-.518.013-.841-.082-.49-.144-.549-.134-.351.057.186.18-.113.26-1.37.367-.884.076-1.867.144-2.184.15-.317.008-1.698.078-3.07.158-1.37.079-2.7.115-2.954.08-.255-.036-.517-.01-.584.055-.066.066-.635.084-1.263.04-.997-.07-1.046-.094-.385-.184.442-.061-.125-.087-1.356-.064-1.164.023-2.33-.022-2.594-.099-.263-.076-.826-.106-1.25-.066-.424.04-.675.016-.556-.053.275-.161-.086-.161-.919 0-.431.083-.98.061-1.609-.065-.525-.105-.753-.193-.506-.196.247-.003.752-.047 1.12-.098.513-.071.592-.047.336.104-.227.133.02.113.748-.06.612-.144 1.488-.228 2.008-.192.508.035 1.657.01 2.553-.055.896-.065 3.273-.157 5.28-.203 2.009-.046 3.995-.15 4.414-.232.42-.081 1.354-.164 2.077-.185.723-.02 1.452-.118 1.62-.217.168-.098.792-.191 1.386-.207.593-.016 1.123-.041 1.176-.057.168-.05.84-.098 1.637-.116.646-.014.701-.058.337-.269-.364-.211-.902-.248-3.314-.226-1.734.016-2.671-.021-2.356-.093.288-.066.35-.126.139-.132-.212-.007-.039-.063.384-.124.441-.065.977-.052 1.257.029.343.099.695.073 1.184-.087.383-.125.942-.229 1.242-.23.452-.003.447-.026-.03-.137-.317-.074-.395-.136-.173-.137.222-.002.568.054.769.123.2.07 1.144.157 2.096.195.951.038 2.422.145 3.268.237 1.133.124 1.818.128 2.602.016 1.049-.149 1.053-.155.328-.417-.537-.195-1.463-.284-3.425-.333-1.479-.036-2.868-.106-3.087-.155-.219-.049-.848-.015-1.398.076-.71.117-1.12.122-1.412.016-.52-.188 2.32-.383 3.54-.243.515.059.743.043.597-.043-.13-.076-.023-.135.24-.132.262.003.818-.003 1.235-.016.745-.021.744-.025-.027-.22-.432-.11-1.215-.183-1.738-.162-.524.02-2.069-.018-3.433-.085-1.365-.068-3.92-.12-5.677-.117-2.245.004-3.117-.04-2.931-.148.182-.106-.02-.121-.65-.047-.755.088-3.381.093-7.354.016-.37-.008-.673-.098-.673-.202 0-.128-.277-.16-.865-.103-.67.067-.73.055-.265-.052.563-.13 2.509-.178 5.168-.129.634.012 1.66-.03 2.278-.092a10.426 10.426 0 0 1 2.21.034c.639.087 1.172.096 1.3.021.12-.07-.168-.127-.639-.127-.47 0-.742-.04-.603-.091.14-.05.038-.188-.224-.305-.38-.17-.38-.192.004-.109.265.058.48.038.48-.043 0-.135-.267-.164-1.922-.21a6.373 6.373 0 0 1-.983-.107c-.222-.05-.915-.086-1.539-.08a20.403 20.403 0 0 1-2.093-.098c-.905-.104-.916-.117-.19-.22.629-.088.548-.11-.45-.118-.67-.005-1.304-.088-1.411-.183-.116-.104-.206-.076-.224.07-.016.133.229.243.546.243.317 0 .577.064.577.141 0 .08-.395.106-.888.062a50.772 50.772 0 0 0-1.527-.115c-.759-.04-1.366-.227-.737-.227.242 0 .331-.1.2-.222-.202-.192.128-.218 2.416-.194 3.646.04 4.01.024 3.9-.175-.058-.106.31-.172.933-.17.566.003.945-.044.842-.104-.102-.06-.47-.109-.817-.109-.456 0-.514-.042-.21-.152.303-.11.653-.107 1.263.011 1.08.21 1.527.06.574-.192-.484-.129-1.998-.199-4.584-.214-2.245-.012-4.021-.086-4.246-.175-.274-.109-.19-.128.286-.068.786.1.877-.049.192-.315-.392-.153-.359-.172.18-.104.363.046.774.018.913-.064a.565.565 0 0 1 .493-.024c.132.069 1.452.085 2.932.037 1.48-.048 2.337-.097 1.903-.109-.433-.012-.984-.093-1.224-.18-.254-.092-.725-.112-1.134-.049-.918.143-3.967.168-3.967.034 0-.058-.461-.105-1.025-.105-2.362 0-.415-.12 3.332-.206 2.22-.05 4.188-.145 4.373-.21.184-.065.602-.082.928-.036.39.054.497.026.315-.08-.364-.214.252-.21.844.003.359.13.463.122.467-.034.007-.172.062-.171.379.007.234.131.375.146.378.04.007-.167 1.057-.155 4.14.048.687.045 1.25.028 1.25-.038s.534-.127 1.186-.135c.782-.01 1.01.024.672.102-.368.084-.268.118.352.12.476.001.865-.054.865-.121 0-.068.51-.15 1.133-.184.624-.033 1.046-.009.94.054-.108.062-.575.121-1.038.13-.72.014-.737.026-.122.083.396.037 1.218-.066 1.826-.229.83-.222 1.106-.246 1.106-.098 0 .222.937.399 1.34.253.348-.126 2.518-.161 8.3-.137 1.177.005 2.506-.061 2.954-.148.447-.087 2.598-.166 4.78-.176l3.966-.02-2.884-.11c-1.586-.06-4.137-.13-5.67-.155-1.532-.024-2.786-.085-2.787-.136 0-.05-1.746-.098-3.878-.105-2.495-.01-4.24-.084-4.897-.208l-1.022-.194 1.253.036c.689.02 1.364.076 1.501.125.439.159 2.357.096 2.557-.084.155-.139.2-.139.224 0 .046.263 1.569.213 1.569-.05 0-.166.256-.208.97-.158.534.036 1.063.013 1.175-.053.113-.066.757-.118 1.433-.117 2.804.008 7.022-.08 7.38-.152.212-.043.774-.067 1.25-.054.476.014.865-.024.865-.084 0-.06.52-.15 1.157-.201.637-.05 1.437-.193 1.777-.316.425-.154 1.239-.219 2.592-.207 2.313.021 6.393-.247 6.393-.42 0-.065-.331-.08-.736-.034-.405.046-.841.023-.968-.051-.128-.075-.835-.1-1.57-.057-.822.048-1.34.021-1.34-.069 0-.08-.302-.173-.672-.206-.37-.032.624-.044 2.21-.027 1.587.018 3.205.08 3.596.139.391.058.824.05.961-.018.138-.069 1.088-.142 2.113-.162 1.672-.033 3.6-.258 3.263-.38-.072-.026-4.72-.071-10.328-.1-5.608-.03-10.38-.095-10.604-.145-.514-.115-10.406-.013-11.65.12-.528.057-.833.045-.71-.027.23-.135-1.872-.156-2.241-.023-.12.044-.723.027-1.338-.036-.616-.064-1.771-.09-2.567-.056-1.114.046-1.314.025-.87-.091.434-.115.1-.134-1.346-.08-1.57.06-1.764.045-1.057-.079.807-.141 1.22-.408.576-.37-.158.008-.548 0-.865-.021-.317-.02.98-.11 2.884-.198 1.903-.09 3.611-.116 3.796-.06.184.055.59.065.904.022.312-.044.702-.002.865.095.223.13.493.135 1.086.02.995-.192 2.828-.222 5.172-.084 1.282.075 1.827.06 1.827-.05 0-.088.183-.159.407-.159.224 0 .283.073.132.161-.194.114-.002.133.65.067 1.195-.123 5.978-.21 15.419-.283 4.164-.031 7.796-.108 8.071-.17.275-.06 1.79-.129 3.366-.15 1.576-.023 3.021-.097 3.211-.166.473-.17-5.848-.69-8.843-.727-1.447-.017-2.295-.083-2.154-.165.146-.086-.186-.101-.88-.042-.614.053-1.375.09-1.692.083-2.895-.066-6.046-.05-5.91.03.207.122-1.975.03-2.598-.109-.25-.056-.358-.045-.24.024.202.118-12.086.128-21.507.018-2.43-.029-3.831.005-3.69.087.135.08.02.087-.287.018-.458-.102-2.01-.162-6.025-.233-.677-.012-1.15-.069-1.053-.126.098-.057-.127-.137-.5-.177-.373-.04.035-.04.906-.001 1.245.056 1.636.021 1.83-.161.17-.16.517-.208 1.111-.154.476.043 1.123.019 1.438-.053.46-.105.4-.132-.291-.133-.476-.002-.865-.059-.865-.127s.41-.115.913-.104c.9.02 1.052.15.53.452-.239.137.855.164 3.075.074.81-.033.533-.298-.311-.298-.49 0-.69.06-.524.158.15.087.074.133-.17.104-.24-.03-.394-.102-.341-.162.053-.06-.142-.163-.433-.228-.55-.123 4.46-.075 5.985.057.462.04.951.008 1.085-.07.135-.08.102-.135-.072-.124-.869.055-1.682-.028-1.473-.15.135-.079-.02-.102-.362-.055-.328.046-.597.014-.597-.071 0-.085.217-.155.48-.156.265-.002.898-.042 1.407-.091.708-.069.851-.047.61.095-.229.133-.142.16.312.097.345-.048.73-.027.854.046.125.073.52.128.878.122.4-.007.465-.038.17-.08-.975-.143-.446-.314.547-.178 1.221.168 2.22.068 1.806-.182-.22-.133-.142-.131.326.006.418.122.697.133.868.034.165-.097.448-.076.827.061.317.115.47.272.338.35-.132.076-.075.14.126.14.438 0 .911-.399.653-.55-.1-.058.706-.08 1.791-.05 1.343.038 2.075-.002 2.29-.124.246-.14.318-.134.323.03.004.158.426.206 1.709.194l1.703-.017-.609.336c-.602.332-.597.334.508.238 1.368-.119 1.665-.197.749-.197-.532 0-.591-.042-.26-.186.236-.103.358-.213.271-.244-.086-.031.696-.043 1.738-.026 2.188.036 3.575.253 3.17.498-.153.092.048.073.447-.042.422-.121.604-.136.435-.034-.328.197-.009.207 1.103.034.657-.102.671-.12.096-.129-.37-.006-.673-.077-.673-.158 0-.085.328-.111.769-.06.969.11 2.396-.045 2.084-.227-.129-.076-.78-.099-1.448-.051-.907.064-1.067.05-.636-.06.317-.08.87-.146 1.227-.147 1.025-.003 1.134-.218.305-.6l-.765-.351 1.472-.09c.81-.05 1.632-.08 1.827-.066.795.055 1.317-.018 1.317-.184 0-.223-9.454-.323-10.174-.107-.735.22-4.367.09-5.125-.184-.578-.21-.588-.256-.081-.383.43-.108.233-.126-.77-.071-1.809.099-10.982-.17-14.185-.415-1.548-.118-.401-.312 2.459-.416 1.48-.054 2.82-.167 2.98-.25.198-.106.405-.09.666.055.352.193.566.095.42-.193-.036-.07.654-.075 1.588-.014.908.06 1.997.108 2.42.106 3.063-.014 14.205-.193 14.305-.229.2-.072-7.903-.262-10.738-.251-1.422.005-2.687-.05-2.81-.122-.124-.073-.014-.132.246-.132.259 0 .36-.04.224-.09-.136-.048-.467-.026-.737.051-.768.22-4.928.324-5.841.146-.508-.098-4.453-.176-10.798-.212-5.498-.03-10.603-.11-11.343-.177l-1.346-.121 1.346.007c3.912.02 4.595-.016 4.36-.237-.126-.12-.476-.183-.777-.141-.3.042-.454.021-.34-.045.114-.067 3.367-.124 7.23-.128 3.862-.003 7.109-.014 7.214-.022.106-.009 2.528-.036 5.383-.06s5.883-.111 6.73-.194c.845-.082 6.466-.22 12.49-.308 6.121-.089 11.161-.22 11.423-.3.258-.076.636-.102.841-.056.205.045 1.948-.015 3.873-.136 1.925-.12 3.798-.184 4.162-.142.364.041 1.173-.046 1.797-.194 1.05-.25 1.079-.278.385-.375-.693-.096-.677-.111.21-.2.703-.072.426-.101-1.035-.112-1.097-.007-2.119-.086-2.27-.174-.17-.1-.105-.123.17-.061.244.054.444.033.444-.049 0-.08.303-.149.673-.152.519-.003.46-.047-.26-.192-.908-.181-.879-.19 1.076-.342 1.105-.086 2.303-.157 2.663-.158.563-.003.574-.021.077-.137-.445-.104-.457-.136-.055-.137.305-.002.43-.09.3-.211-.121-.115-.043-.209.175-.209.217 0 .288-.062.157-.139-.13-.076-.757-.139-1.391-.139-.671 0-1.054-.058-.916-.139.13-.077.833-.14 1.56-.14 1.5 0 1.757-.227.459-.405-.813-.112-.784-.127.48-.261l1.346-.143-1.218-.012c-.67-.008-1.275-.074-1.345-.15-.07-.075-1.732-.16-3.693-.188-1.96-.028-3.658-.085-3.774-.127-.116-.042 1.661-.052 3.948-.024 2.44.031 3.94.003 3.629-.068-.373-.084-.086-.144.96-.2 2.155-.114 6.834-.257 8.408-.257.744 0 1.352-.06 1.352-.133 0-.074.185-.092.412-.042.588.132 3.817-.065 3.817-.232 0-.077-.333-.102-.741-.055-.408.047-3.09.095-5.96.107-3.058.012-5.218.077-5.218.156 0 .074-.128.088-.284.031-.156-.056-.285-.207-.288-.335-.004-.185-.309-.223-1.49-.187-.894.028-1.393-.008-1.254-.089.232-.136-.663-.284-2.452-.406-.528-.036-3.643-.083-6.92-.104-8.568-.055-11.57-.148-11.96-.371-.26-.148-.334-.15-.34-.01-.003.132-.39.155-1.447.087-2.447-.16-2.621-.29-.521-.391 3.229-.155 3.52-.254 1.375-.467a76.586 76.586 0 0 0-2.488-.217c-.317-.015-.75-.104-.961-.2-.212-.094-1.017-.188-1.79-.208-.772-.02-1.323-.083-1.225-.14.098-.058.643-.07 1.212-.027.733.056.866.041.457-.051-.317-.072-1.244-.173-2.06-.227a38.576 38.576 0 0 1-2.499-.245c-.559-.083-1.708-.174-2.554-.204-.846-.03-2.057-.144-2.692-.252a29.98 29.98 0 0 0-2.287-.283c-.729-.056-.965-.124-.662-.192.326-.073.17-.155-.5-.266-1.26-.207-1.232-.387.085-.56.991-.132 1.002-.14.164-.151-.775-.01-.82-.037-.34-.211.49-.177 2.218-.322 4.776-.4 1.33-.04.126-.391-1.442-.42-1.354-.025-1.947-.283-.964-.42.327-.044.593-.034.593.023s.772.117 1.715.131c1.343.022 1.67-.015 1.505-.17-.115-.109-.497-.23-.85-.27-.351-.04.008-.04.803-.001.87.043 1.441.013 1.441-.075 0-.08-.821-.152-1.826-.16-1.826-.014-1.826-.014-.577-.159 2.502-.29 1.549-.38-6.354-.592-2.802-.075-4.316-.195-4.316-.34 0-.057 4.975-.114 11.055-.127 11.063-.024 14.322-.092 14.322-.3 0-.17-4.71-.379-5.479-.244a4.412 4.412 0 0 1-1.416-.026c-.41-.08-1.837-.145-3.173-.146-1.71-.002-2.257-.042-1.851-.137.425-.1.172-.135-.962-.135-1.184 0-1.405.034-.96.146.436.11.343.121-.385.044a21.232 21.232 0 0 0-2.211-.074c-.687.015-1.25-.033-1.25-.107 0-.16 1.396-.34 1.848-.239.174.04 1.17.02 2.214-.044l1.898-.115-1.538-.027c-.846-.015-1.323-.059-1.06-.097.69-.101-.34-.448-1.242-.418-.38.012-.753-.04-.829-.116-.075-.077.252-.153.728-.17.476-.016 1.211-.058 1.634-.093.423-.035 2.067-.076 3.653-.092 2.64-.025 2.428-.043-2.5-.213-4.714-.163-10.122-.317-11.653-.332-.277-.002-.415-.057-.306-.12.108-.064 1.027-.102 2.04-.086 1.015.017 2.012-.006 2.215-.05.204-.044.937-.1 1.628-.127 3.244-.12 2.953-.274-.865-.46-4.062-.198-3.982-.355.213-.417l2.114-.031-1.666-.098c-.917-.054-1.784-.166-1.927-.25-.143-.083-.777-.189-1.409-.234-.905-.066-.986-.055-.38.048.628.108.65.134.123.142a4.08 4.08 0 0 1-1.213-.196c-.312-.113-1.579-.244-2.815-.292-1.236-.047-2.334-.127-2.44-.177-.106-.05-.625-.112-1.153-.138-.53-.025-1.11-.098-1.291-.16-.678-.235 1.396-.427 5.413-.5 2.28-.041 4.714-.14 5.41-.218.696-.079 1.509-.11 1.806-.068.297.041 1.458.017 2.58-.054 4.402-.277 20.145-.539 29.53-.49 6.785.034 7.306.014 7.306-.286 0-.106.173-.193.384-.193.212 0 .385.096.385.214 0 .186.593.202 4.518.12 2.485-.051 4.69-.137 4.902-.19.212-.053 2.202-.109 4.422-.124 2.22-.014 6.187-.094 8.814-.177 2.627-.082 5.419-.112 6.203-.067.935.054 1.567.021 1.834-.095.383-.167 3.035-.197 4.118-.047.257.036.941-.024 1.52-.132.58-.11 1.372-.198 1.76-.198.39 0 1.148-.073 1.687-.161.703-.116 1.23-.12 1.871-.015 1.144.189 4.858-.04 5.456-.336.523-.259 4.034-.434 4.034-.202 0 .276 1.217.17 1.43-.124.144-.201.41-.259.925-.2.396.046.72.026.72-.043 0-.069.953-.243 2.116-.386 1.163-.143 2.114-.31 2.114-.37s.248-.11.55-.11c.302 0 .798-.09 1.102-.2.363-.132 1.653-.219 3.754-.254 1.932-.033 3.26-.118 3.348-.213.08-.088.74-.2 1.465-.249 1.338-.09 2.466.055 4.97.642.634.149 1.412.314 1.73.366.317.053 1.156.253 1.864.446 1.176.32 1.646.352 5.459.37 2.834.015 4.147-.027 4.095-.13-.136-.273 2.06-.264 2.636.011.501.24.533.235.544-.074.01-.248.169-.306.655-.239.353.05.773.013.934-.081.409-.24 7.227-.227 7.64.015.232.136.485.139 1.14.012.464-.09 1.307-.15 1.876-.133.568.016 1.533-.044 2.144-.134.61-.09 1.194-.133 1.295-.096.102.036.445-.028.763-.143.391-.141.943-.18 1.7-.12.662.053 1.349.021 1.675-.077.384-.115 1.363-.136 3.212-.069 2.175.08 2.843.054 3.662-.14.551-.131 1.348-.205 1.77-.165.95.09 3.506-.18 3.231-.34-.11-.065-.027-.118.184-.118.212 0 .48.056.596.124.364.213 4.895.436 5.247.258.122-.062.693.022 1.27.186.576.164 1.154.26 1.284.213.13-.047.024-.086-.236-.086-.259 0-.362-.063-.23-.14.133-.079.393-.109.576-.068.184.042.475-.01.647-.115.171-.104.838-.227 1.48-.272 1.484-.103 4.458.036 4.184.196-.206.12.582.175 1.857.129.37-.014.673.041.673.123 0 .256 1.493.16 1.912-.123.314-.213.255-.302-.275-.415-.525-.112-.396-.125.574-.06.977.066 1.25.037 1.25-.133 0-.317.628-.408 1.482-.215.613.139.866.125 1.428-.079.491-.177 1.044-.226 1.963-.172 1.08.063 1.279.033 1.279-.194 0-.34.212-.338 1.227.003.887.299 1.65.241 1.291-.097-.124-.117-.018-.42.235-.673.386-.385.708-.476 1.967-.553.922-.056 1.67-.033 1.93.061.233.085.717.154 1.075.154s.751.094.873.209c.121.114.418.208.659.208.24 0 .338-.094.216-.208-.137-.13 0-.209.366-.209.347 0 .475-.066.313-.161-.189-.11-.014-.136.554-.083a2.863 2.863 0 0 0 1.591-.271c.59-.271.982-.33 1.73-.263.843.076.968.042.968-.263 0-.278.192-.35.939-.35.516 0 1.045.063 1.176.14.36.21 1.346.166 1.346-.062 0-.123.475-.216 1.25-.243.84-.03 1.369-.142 1.615-.345.2-.165.835-.335 1.41-.376.82-.06 1-.136.84-.358-.111-.155-.094-.439.04-.631.193-.278.483-.35 1.412-.35.68 0 1.07.058.93.139-.138.08.253.139.94.139.92 0 1.176-.06 1.176-.278 0-.218.256-.279 1.178-.279.649 0 1.52.066 1.937.147 1.222.237 3.679.216 4.455-.037.383-.125 1.171-.27 1.751-.322.58-.053.959-.152.84-.22-.33-.194.985-.32 1.476-.142.24.086.9.157 1.466.157s1.244.094 1.508.209c.263.115.674.203.912.197.27-.007.251-.037-.05-.081-.664-.097-.205-.325.654-.325.387 0 .983-.155 1.326-.344.508-.28.852-.331 1.87-.275 1.037.056 1.118.044.479-.076-.64-.12-.577-.13.38-.061.633.045 1.279.156 1.436.246.213.12.288.118.293-.011.007-.096.341-.174.752-.174.41 0 .853-.063.984-.14.13-.076.433-.138.673-.138.24 0 .109.086-.29.191-.68.18-.685.206-.073.427.525.19.65.197.65.034 0-.11.266-.28.59-.378.487-.146.68-.131 1.122.087.548.271 1.067.204 1.214-.157.046-.112-.19-.204-.524-.204s-.485-.045-.335-.099c.437-.158 2.986.404 2.767.61-.118.111.083.184.509.184.541 0 .661-.08.52-.345-.276-.524.17-.96 1.144-1.119 1.2-.195 2.044-.11 2.53.254.232.174.42.22.435.108.02-.148.245-.126.891.086 1.104.364 2.837.481 3.41.232.522-.229 1.877-.252 1.877-.034 0 .105.158.112.48.02.805-.227 2.243-.304 3.214-.17.58.08.92.076.92-.01 0-.074.27-.135.6-.135.33 0 .507.054.396.12-.285.166 1.832.009 2.134-.159.152-.084.813-.092 1.73-.02.817.064 1.787.105 2.157.09.37-.015.673.034.673.11 0 .075.649.142 1.442.147 1.157.008 1.29.034.673.13-.675.104-.687.123-.096.15 1.46.066 1.634.051 1.634-.14 0-.11.476-.245 1.057-.301.582-.057 1.058-.065 1.058-.019 0 .047.22-.025.49-.158.588-.29 3.223-.247 3.775.063.284.16.409.162.674.014.246-.138.48-.097.961.169.35.193.636.447.636.564 0 .15.387.214 1.293.214 1.17 0 1.275-.033 1.108-.348-.151-.286-.033-.348.672-.348.601 0 .789-.061.633-.208-.167-.157.066-.209.943-.209.678 0 1.065.058.926.14-.13.076-.044.138.193.138.236 0 .323.063.192.14-.204.119.893.21 1.842.153.167-.01.653.05 1.08.132.656.127.758.11.658-.102-.082-.175.12-.253.65-.253.477 0 .722.078.644.205-.098.161.03.154.607-.035.403-.132.978-.24 1.278-.24.3 0 1.04-.095 1.644-.208.604-.114 1.252-.173 1.44-.13.189.041.545-.084.791-.28.48-.38 1.727-.513 1.333-.141-.35.33 1.284.491 2.373.233.692-.164.86-.17.77-.024-.062.102.228.213.645.245.953.075 1.72.441 1.45.695-.149.14.095.182.909.156.611-.02 1.781.068 2.6.196.82.128 1.728.232 2.019.232.313 0 .53.147.53.36 0 .57.925.316.98-.271.057-.587.345-.73 1.711-.849.71-.062 1.239.01 2.023.276.882.298 1.101.323 1.291.143.126-.118.47-.215.765-.215.294 0 .535-.056.535-.124 0-.069.444-.165.985-.214.746-.068 1.164-.012 1.723.229.452.194.852.263 1.033.178.36-.17 2.027-.207 2.027-.046 0 .064.323.116.717.116.394 0 1.208.14 1.808.31.6.17.96.233.798.14-.165-.097-.105-.172.137-.172.237 0 .335-.056.22-.123-.289-.17.804-.479 1.299-.368.218.049.702.025 1.074-.054.371-.078.538-.144.37-.146-.467-.007 3.043-1.256 3.528-1.256.233 0 .924.189 1.536.42.986.374 1.141.394 1.377.174.247-.23.313-.226.924.045.361.16.911.333 1.22.384.315.051.18.067-.3.034-1.185-.08-1.095.17.121.337.783.108.933.198.725.435-.203.231-.13.28.318.218.32-.044 1.261-.154 2.093-.244 1.41-.153 2.975-.69 2.01-.69-.226 0-.304-.063-.173-.14.347-.203.961-.17.961.053 0 .105.239.263.53.35.292.088.63.338.75.555.168.306.49.415 1.417.482.78.057 1.102.144.922.25-.174.101-.11.124.173.06.248-.055.37-.147.272-.204-.098-.057.159-.192.57-.3.905-.235.966-.411.145-.411-.537 0-.54-.023-.028-.209.317-.115.762-.209.989-.209.226 0 .368-.072.316-.162-.131-.22 2.453-.413 3.068-.228.264.079.384.2.267.268-.116.069.058.162.387.208.33.045.503.139.386.207-.117.069.045.125.361.125.315 0 .683.125.818.278.134.153.535.277.89.276.56-.003.57-.02.07-.142-.502-.121-.488-.158.105-.284.375-.08.564-.214.421-.297-.159-.093-.08-.112.201-.05.254.057.71.029 1.016-.063.325-.098.975-.128 1.57-.074.828.075.971.05.778-.131-.164-.155-.092-.19.24-.112.262.06.995.111 1.63.111.794 0 1.116.062 1.035.198-.1.167-.02.169.51.01.53-.16.682-.158.977.01.243.14.351.147.355.026.008-.095.31-.173.68-.172.531.002.561.028.142.124-.291.067-.417.187-.28.268.255.149 1.773.028 3.561-.282.935-.163 1.671-.055 1.671.244 0 .11.232.2.515.2.606 0 1.521.656 1.188.851-.14.082.18.097.821.04.709-.065.968-.047.795.054-.14.082-.08.188.133.236.214.048.574-.06.8-.238.342-.272.732-.331 2.359-.357 1.667-.026 2.083.022 2.883.335.514.2.843.451.731.557-.14.131.096.192.745.192.522 0 .95.063.95.139 0 .252.674.145.88-.14.13-.18.524-.277 1.121-.277.507 0 1.085-.056 1.286-.124.717-.242 2.096-.323 2.096-.122 0 .105.201.263.448.352.34.124.557.108.905-.064.756-.374 1.803-.122 1.655.398-.075.264.068.464.356.498.264.032.48-.007.48-.088 0-.093.314-.104.861-.03.896.12 2.155-.051 2.715-.368.425-.24 1.423-.22 1.423.03 0 .235 1.13.482 1.805.394.252-.033.364-.15.247-.26-.155-.145.083-.196.887-.188.604.007.882.043.618.081-.65.095-.611.325.055.325.294 0 .635.094.757.209.122.115.486.208.81.208.324 0 .594.11.6.244.012.232.037.232.524 0 .28-.134.708-.244.949-.244s.438-.093.438-.208c0-.233.073-.243.906-.128.32.045.49.17.375.278-.123.116.027.198.361.198.845 0 1.597.364 1.019.493-.321.072-.263.14.202.234.48.097.785.068 1.144-.11.518-.256 1.576-.152 1.127.111-.17.1-.036.12.378.06l1.179-.172c.353-.052.518.007.48.174-.047.207.278.26 1.806.296 1.238.028 1.778-.007 1.61-.105-.137-.08-.057-.147.18-.147.236 0 .315-.066.176-.148-.172-.1.22-.117 1.227-.051 1.796.118 2.011.176 1.277.344-.737.168-.293.168.933 0 .646-.09 1.056-.086 1.218.009.134.079.466.113.736.075.27-.037.68 0 .913.085.232.084 1.335.157 2.45.163 1.415.007 2.172.08 2.505.24.287.139.787.202 1.25.158.452-.043.772-.005.772.092 0 .183 1.019.104 2.884-.225.634-.112 2.007-.23 3.052-.263 1.044-.033 2.02-.131 2.167-.218.149-.087.45-.117.67-.068.222.05.508.027.639-.049.344-.201 1.708.14 1.467.368-.11.102.062.183.387.183.392 0 .516.091.38.279-.163.226-.011.278.805.278.554 0 1.007-.063 1.007-.14 0-.076.648-.129 1.441-.117 1.16.016 1.236.032.385.078-.582.032-1.057.107-1.057.167 0 .098.583.105 2.787.034.37-.012.673-.088.673-.17 0-.08-.195-.103-.434-.05-.266.06-.36.023-.24-.096.106-.106.406-.175.666-.153.26.021.685-.024.944-.102.533-.16 5.238-.134 4.964.027-.098.058.102.105.444.105.343 0 .516.062.385.139-.33.193.325.174.878-.026.25-.09.582-.118.738-.062.157.056.03.16-.282.232-.474.109-.457.13.108.132.37.001.673.06.673.13 0 .076.543.073 1.35-.008.744-.074 1.522-.097 1.73-.05.21.047.38.026.38-.046 0-.191 2.035-.302 2.575-.14.253.075.874.118 1.38.094.874-.042 2.583.395 2.225.568-.091.044.168.098.576.122.55.03.609.009.23-.085-.361-.09-.044-.154 1.08-.22.877-.05 1.736-.06 1.91-.02a.55.55 0 0 0 .518-.206c.257-.355 1.686-.364 2.747-.017.78.256 3.675.51 3.68.323 0-.053.507-.2 1.125-.327 1.063-.219 1.157-.217 1.787.035.758.303 1.717.343 2.391.099.36-.13.462-.126.462.017 0 .147.113.15.577.01.468-.14.576-.134.576.031 0 .281 1.394.723 1.705.541.313-.183 1.373-.039 1.263.172-.056.107.53.15 1.743.13 1.228-.022 1.828.024 1.832.139.007.116.112.109.345-.024.197-.113.614-.156.991-.104.453.063.713.006.853-.188.11-.154.441-.28.733-.28.293 0 .54-.077.548-.173.007-.096.275 0 .593.211.554.37.672.383 2.897.316 1.642-.05 2.508-.149 2.964-.339.92-.383 2.178-.483 2.883-.228.324.118 1.045.214 1.601.214.581 0 .91.06.772.14-.131.077.02.176.335.22.532.073 2.135-.129 4.473-.564.55-.103 1.29-.135 1.73-.077.423.057.99.073 1.261.036.652-.088 2.017.491 1.75.743-.127.12.033.197.409.197.34 0 .618.06.618.132 0 .173 2.367-.109 2.898-.344.377-.168 1.334-.257 2.376-.221.269.01.367.112.23.24-.188.178-.068.206.572.132.595-.068 1.135.02 2.037.332.676.234 1.073.429.883.434-.19.005.084.07.61.146.652.094.997.091 1.09-.01.074-.08.313-.107.53-.059.5.112 1.064-.203 1.072-.6.007-.416.652-.526 1.869-.319 2.397.41 2.698.444 3.099.354.231-.052.426-.012.433.088.007.12.184.1.523-.061.28-.134.716-.244.966-.244.251 0 .89-.157 1.422-.35a5.516 5.516 0 0 1 2.078-.318c.854.024 1.017.072.704.209-.329.143-.17.147.815.023 1.08-.136 1.29-.12 1.795.141.618.319 2.728.435 2.207.121-.197-.118-.083-.113.36.017.357.104.996.157 1.42.117.425-.04.682-.02.573.043-.221.13 2.565.07 4.007-.086.655-.07.845-.053.65.061-.151.089-.092.161.132.161s.407-.062.407-.139c0-.22 2.686-.167 2.924.057.155.147.494.166 1.341.079.692-.072 1.047-.067.911.012-.372.218.343.14 1.361-.148 1.072-.303 1.923-.358 1.923-.124 0 .202 1.83.038 2.573-.23.438-.159.448-.203.05-.205-.28-.002.245-.127 1.165-.278 1.773-.291 2.474-.263 2.106.084-.18.168-.023.192.801.118.564-.051.975-.039.914.028-.116.125.18.19.873.19.224 0 .3-.063.17-.14-.132-.076-.066-.138.143-.138s.49-.124.623-.275c.193-.22.54-.269 1.719-.244.813.018 1.398.079 1.3.136-.098.058.023.104.252.104.245 0 .303.075.134.174-.168.099.13.074.682-.057.919-.218 1.077-.216 2.58.028.882.142 1.603.2 1.603.127 0-.073.389-.14.865-.15.598-.013.45-.054-.48-.131-1.317-.11-1.313-.11.192-.046 2.384.102 3.348.093 3.607-.035.448-.222 3.828-.22 5.063.003 1.324.239 5.414.28 5.796.058.155-.09.56-.077 1.143.036.497.097 2.26.193 3.916.216 2.552.034 3.124 0 3.751-.228.548-.198 1.065-.247 1.997-.189 2.133.134 2.52.21 1.663.325-.712.096-.708.104.098.18.465.045.767.035.673-.02-.284-.166 2.415-.456 3.3-.354.627.072.696.12.297.21-.655.146-.454.21.996.315.634.046.938.05.676.008-.367-.058-.351-.12.068-.272.608-.22 3.863-.42 3.514-.215-.12.07.055.165.388.211.937.13 1.604.08.736-.055-.69-.107-.697-.12-.07-.129a8.518 8.518 0 0 1 1.44.134c.507.098.745.099.745.002 0-.086.648-.115 1.634-.073.998.042 1.434.022 1.12-.052-.386-.091-.296-.141.369-.204.484-.046.96-.055 1.057-.02.098.036-.036.064-.299.064-.328 0-.292.067.116.214.83.3 3.113.088 3.115-.29 0-.15.317-.289.72-.317.494-.035.626.003.423.122-.22.129-.034.15.724.08.603-.054 1.019-.034 1.019.05 0 .078.259.141.576.141.695 0 .744.163.116.39-.359.13-.273.167.385.167.465 0 .846-.06.846-.133 0-.234 6.399-.477 6.775-.257.106.062.598.076 1.094.03.549-.05 1.33.017 1.995.169l1.094.25-.735-.31-.735-.308 1.275.093c.918.066 1.199.047 1-.069-.174-.102.024-.16.518-.16.435 0 .748.078.696.173-.139.25 2.102.163 2.637-.101.543-.269 1.07-.276.788-.01-.242.228 1.02.43 1.715.275.269-.06.368-.023.256.095-.1.106.164.303.586.437.958.303 1.185.307.875.015-.207-.195-.152-.202.372-.044.514.154.68.152 1.007-.015.313-.16.347-.15.168.05-.237.264-.451.264 3.803.01.921-.054 1.037-.036.577.09-.457.126-.337.14.576.07a29.866 29.866 0 0 1 2.005-.082c.598.004.786-.055.632-.2-.141-.134.022-.207.44-.207.427 0 .58.073.437.208-.143.134.023.213.44.22.4.007.471.039.179.081-.264.039-.48.126-.48.194 0 .16 2.418-.007 2.748-.19.139-.075.546-.095.908-.045.483.067.599.035.436-.119-.123-.116-.098-.215.054-.22.152-.005.752-.032 1.334-.06.581-.027 1.057.008 1.057.08 0 .07-.294.129-.654.129-.478 0-.54.041-.227.154.29.105 1.204.119 2.865.042 2.21-.101 2.312-.12 1.092-.195l-1.346-.084 1.277-.111c.703-.061 1.379-.074 1.503-.03.125.046.436.02.693-.058.54-.162 1.818-.028 1.5.157-.117.069-.028.125.196.125.57 0 .51-.378-.072-.469-.265-.041.022-.048.639-.017.616.032 1.3.123 1.519.203.22.079.72.144 1.113.144s.622.054.508.121c-.114.067.66.163 1.72.214 1.061.051 1.834.149 1.717.217-.116.068-.031.164.189.214.22.049.352.006.294-.095-.072-.126.443-.2 1.625-.234 1.346-.039 1.56-.075.961-.164-.687-.102-.66-.116.241-.124.556-.006 1.226.084 1.49.199.5.218 2.307.292 2.307.094 0-.062 1.92-.09 4.267-.06 2.554.031 4.179.001 4.047-.076-.129-.076.367-.09 1.212-.036.887.057 1.797.025 2.393-.084.529-.098.89-.195.801-.216-.089-.022-.077-.13.027-.242.139-.151.92-.208 3.044-.223 3.014-.02 4.203.128 4.203.523 0 .132.37.312.821.4.6.115.69.187.338.266-.291.065.148.13 1.111.163 1.337.046 1.754-.005 2.582-.318.935-.353 2.838-.62 2.838-.397 0 .057.346.136.77.176.422.04.768.169.768.285 0 .117.343.252.761.3.42.048.722.157.673.243-.095.169 3.064.426 3.643.297.196-.044.685.029 1.09.16.51.168 1.083.216 1.883.158.631-.045 1.235-.032 1.34.03.212.124 1.293.096 4.41-.112 1.139-.076 2.35-.087 2.69-.025.342.063 1.96.19 3.596.283 1.636.093 3.512.266 4.167.384.74.133 1.692.186 2.512.137.781-.045 1.23-.024 1.098.054-.123.072 0 .137.28.144.276.008.07.064-.458.126-.78.09-.612.114.89.125 1.018.007 2.186.079 2.595.158.928.18.977.02.071-.229-.618-.17-.595-.186.288-.204 1.92-.038 3.232.041 4.104.248.557.132 1.285.178 1.95.124.908-.075.957-.064.34.07-.515.113-.588.187-.255.261.26.058-.041.097-.686.088-.63-.008-1.068-.062-.97-.12.272-.16-.38-.125-2.223.118-.926.122-2.159.22-2.74.218-.582-.002-1.058.067-1.058.154 0 .112-.131.11-.46-.01-.633-.228-1.206-.21-.95.03.115.109-.058.235-.384.28-.326.045-.501.168-.39.273.34.32-2.478.69-4.626.608-1.012-.038-1.624-.041-1.358-.007.266.035.369.13.23.212-.142.082-.087.111.12.065.206-.046.883.028 1.504.165.706.155 2.737.315 5.412.427 4.6.191 7.986.58 6.378.732-.593.056-.78.032-.597-.08.146-.088-.052-.066-.442.048-.522.154-1.7.209-4.461.21-2.824 0-3.66.04-3.38.162.204.09 1.054.2 1.888.244l3.056.162c.846.045 1.44.14 1.321.21-.12.07.095.164.479.209.384.044 1.043.133 1.466.197.423.064 1.629.146 2.68.182 1.05.037 1.966.129 2.036.204.161.175 1.629.045 1.629-.143 0-.093.16-.092.48.002.581.172 4.535.176 5.146.007.272-.076.518-.044.656.086.163.153-.153.228-1.205.29-.784.045-1.857.112-2.386.148-.75.051-.834.034-.385-.079.689-.172-3.336-.055-5.228.152-.655.072-1.449.095-1.765.051-.315-.044-.795.017-1.066.135-.295.129-1.113.215-2.03.215-1.434 0-1.523.023-1.35.352.119.224-.025.393-.393.468-.76.154-.268.428.8.446.785.013.777.022-.117.125-.949.11-.946.112.193.135.924.02 1.01.044.429.127-.632.09-.558.132.577.335 1.095.195 1.164.232.436.235-.51.002-.866.089-.866.211 0 .116-.341.21-.769.21-.877 0-.947.111-.273.432.32.151 1.406.255 3.371.322 3.052.103 4.08.234 3.68.468-.284.167 1.68.438 3.373.466 1.089.018 1.059.028-.346.12l-1.538.099 1.346.014c.74.007 2.038-.035 2.884-.095.897-.062 2.82-.037 4.614.061 1.692.093 2.865.176 2.607.184-.259.008-.366.11-.24.229.231.219 1.145.198 1.03-.023-.034-.067.57-.137 1.346-.156 1.055-.026 1.264.001.832.107-.408.1 0 .118 1.411.064 1.289-.05 2.083-.021 2.26.082.186.108.022.13-.514.068-1.017-.116-1.456.138-.57.33.562.121.445.144-.664.131-.74-.009-4.098.032-7.462.092-4.072.072-6.037.061-5.878-.032.152-.088-.42-.118-1.574-.08-.996.032-3.716.078-6.042.102-6.28.065-5.962.05-5.714.283.123.115.687.208 1.257.208.57 0 1.2.052 1.4.116.2.064 1.49.233 2.865.376 1.375.143 2.586.3 2.692.348.165.076 6.425.383 8.65.424.688.012.671.03-.163.172-.715.122-.968.119-1.089-.013-.272-.294-1.144-.186-1.099.137.052.37 1.552.529 5.139.54 1.321.004 2.403.066 2.403.136 0 .071-.173.129-.385.129-.21 0-.384.055-.384.123 0 .194 2.06.286 2.625.117.34-.102.596-.105.769-.012.143.078 1.037.206 1.989.285l1.73.143-1.656-.01c-.986-.006-1.784.064-1.971.174-.23.134-.387.14-.589.023-.206-.122-.407-.121-.817.002-.298.09-.542.117-.542.06 0-.057-.251-.029-.558.064-.308.092-.913.126-1.346.077-.52-.06-.79-.029-.793.093 0 .142-.073.144-.309.01-.218-.123-.646-.136-1.532-.044-.676.07-1.23.099-1.23.063 0-.036-.362.006-.805.091-1.005.195-3.106.046-2.25-.16.614-.147-.898-.06-2.866.165-.613.07-2.743.127-4.733.127-2.314 0-3.532.05-3.38.14.13.076-.125.138-.566.138-.442 0-.904.094-1.025.21-.146.136-.77.21-1.815.217-1.383.007-1.474.026-.695.139.762.11 6.465.302 8.618.29.37-.002.849.116 1.065.262.3.202.688.25 1.635.2l1.242-.065-1.25.143c-1.317.15-1.768.355-.523.237.4-.037.962-.014 1.25.052.35.08.077.12-.834.122-.895.001-1.54.093-1.892.27-.41.206-1.215.292-3.421.367-2.566.087-2.807.119-2.168.287.537.143.579.194.163.205-.71.018 1.513.227 4.315.405 1.197.077 2.927.294 3.845.484l1.668.345-1.603.001c-3.447.004-3.81.35-.512.489 2.945.124 3.102.414.288.534-1.184.051-2.206.18-2.472.311-.328.163-1.43.254-3.98.33-3.239.097-4.187.227-4.212.576 0 .077 1.707.282 4.416.529.635.058 2.106.09 3.269.07 2.987-.05 11.522.208 12.784.386 1.139.16 1.345.322.577.452-.264.045.125.054.865.021.74-.032 1.692-.005 2.115.06.726.113.72.12-.118.129-.49.006-.781.072-.65.149.204.12-1.562.22-2.636.15-.182-.011-.568.051-.86.139-.293.088-.837.114-1.21.058-1.18-.177-3.114-.218-3.365-.071-.134.078-.88.137-1.66.131-1.187-.008-1.293-.031-.65-.14.618-.106.542-.118-.385-.06-2.94.183-4.063.198-3.813.052.161-.095 0-.123-.465-.076-2.256.23-2.633.25-2.086.114.398-.1.066-.124-1.153-.086-.941.03-1.798.06-1.904.07-.107.01.414.105 1.154.211 1.127.162 1.19.19.384.177-1.758-.03-2.372.025-2.212.198.2.218-2.204.527-3.628.467-.585-.025-.983.002-.886.059.098.056-1.37.13-3.26.163-2.596.044-3.624.12-4.197.308-.618.202-1.425.247-4.335.242-2.364-.004-3.382.038-3.006.124.313.072 1.218.131 2.01.132.794.002 1.443.065 1.443.142 0 .197 1.669.172 2.286-.035.414-.14.464-.14.247 0-.347.222-.234.219 1.492-.042.785-.119 1.315-.15 1.178-.07-.162.094.412.151 1.599.16 1.5.012 1.668.035.888.126-.878.101-.89.112-.132.125.618.01.78.081.638.278-.132.184.06.294.618.358.445.051.712.15.593.22-.125.073.285.09.955.042.923-.066 1.173-.036 1.173.141 0 .165-.392.233-1.442.249l-1.442.022 1.346.053c2.085.081 2.66.188 1.73.32-.612.088-.514.11.481.104.828-.005 1.25-.076 1.25-.21 0-.12.227-.17.564-.124.31.043.683.01.829-.076.172-.101.077-.116-.277-.043-.371.077-.42.066-.154-.035.211-.08 1.629-.215 3.15-.299 3.409-.187 3.98-.187 3.09 0-.375.08-.58.203-.456.275.127.075.476.041.804-.078.766-.277 1.964-.293 1.333-.018-.474.207.847.264 10.15.438 5.928.11 13.65.539 13.65.756 0 .198 4.2.368 6.537.265 1.345-.059 2.721.028 2.5.158-.132.076-.024.14.265.14.376.003.362.035-.054.13-.308.071-.685.1-.839.066a.84.84 0 0 0-.522.079c-.134.077-1.518.141-3.08.141-1.633 0-2.948.064-3.097.152-.152.089-.769.117-1.49.068-1.245-.085-3.68.135-3.68.33 0 .06-.458.075-1.018.037-.595-.041-.924-.016-.791.062.269.158-.443.167-15.941.217-11.295.037-14.464.13-10.45.309 1.024.045 2.697.144 3.718.219a51.8 51.8 0 0 0 2.957.136c.606 0 1.207.062 1.335.137.13.075.615.133 1.08.129.466-.005 1.586.06 2.49.142.903.083 3.152.172 4.998.196 4.12.055 10.106.359 10.76.545.374.107.296.197-.348.399-.456.143-.988.26-1.183.26-.195 0-.065.104.285.231.378.137 1.185.223 1.978.213.903-.013 1.29.037 1.183.151-.11.119-.968.156-2.816.125-2.374-.041-9.98.39-11.032.626-.19.042-2.575.073-5.299.068-2.723-.005-5.035.039-5.136.098-.103.06 1.407.12 3.352.133 3.227.023 5.253.07 10.297.236.97.032 2.178.114 2.686.182 1.017.136.951.15-1.736.368-.875.071-1.006.121-.576.22.48.11.478.128-.023.131-.513.004-.513.02 0 .14.512.12.512.136 0 .147-.318.007.025.091.759.187l1.335.174-1.277.093c-.702.05-1.736.052-2.297.002l-1.02-.09.962.295c1.12.343.58.407-.7.083-.802-.203-.987-.2-2.397.053-1.373.246-1.44.28-.657.342.478.037 1.216.112 1.639.167.769.099.769.099 0-.136-.755-.23-.751-.232.193-.135.529.055 1.126.155 1.327.223.2.068.72.13 1.153.138.676.012.651.03-.172.125l-.962.111.962.023c.927.022.916.03-.289.248-.687.124-1.25.302-1.25.396 0 .118-.838.173-2.709.18-2.622.008-4.553.254-3.92.499.156.06-.108.037-.59-.054-.703-.132-.984-.125-1.44.04-.313.114-1.563.245-2.78.293-3.111.122-3.94.196-3.94.353 0 .075 1.026.136 2.281.136 2.47 0 4.255.18 4.255.427 0 .086-.344.188-.765.228-.42.04-.68.122-.577.182.102.06-.88.155-2.184.21-1.305.054-2.89.213-3.524.352l-1.152.254 1.121.09c.617.048 1.623.146 2.236.216.613.07 1.608.128 2.21.128.604 0 1.097.061 1.097.136 0 .15-.77.223-3.653.344-1.057.044-1.991.154-2.075.244-.084.09-.56.311-1.058.491-1.196.433-1.145.551.38.877.708.15 1.493.439 1.747.64.399.317.355.402-.324.63-.432.146-.785.224-.785.173 0-.05-.257-.015-.572.08-.315.094-.478.227-.362.295.116.068-.039.123-.342.123-.303 0-.75.087-.992.192-.242.106-.999.24-1.682.297-.804.067-1.013.125-.593.164.806.074.756.591-.055.57-1.246-.032-3.252.065-2.606.125.373.036.586.118.474.184-.112.065.318.23.956.367.639.136 1.16.287 1.16.335 0 .047.395.151.877.23 1.325.22 1.253.724-.128.898-1.678.212-.995.394 1.486.395 3.407.003 4.807.13 5.589.508.96.465.566.945-1.096 1.334-.734.172-1.336.35-1.338.394 0 .083 2.779.36 4.757.473 1.433.082 1.68.18.772.304-.4.055-.95.18-1.22.276-.272.097-1.05.21-1.731.251-.68.041-3.291.195-5.802.342-6.32.37-7.035.725-1.866.925 2.295.089 6.251.448 5.158.468-.277.005-.396.072-.266.149.134.078-.18.139-.72.139-.528 0-1.447.07-2.042.154-.96.137-1 .166-.355.252.802.108-2.596.352-7.264.521-1.48.054-3.038.115-3.46.136-.423.022-1.808.075-3.077.12-1.269.044-3.21.238-4.313.43-1.103.192-2.617.386-3.364.43-.747.044-1.358.13-1.358.191 0 .062-.59.19-1.31.283-.72.095-1.237.24-1.149.322.102.097-.765.165-2.425.19-1.42.022-2.677.087-2.791.144-.114.058-2.544.103-5.399.1-4.329-.004-5.309.034-5.905.228-.394.129-.956.2-1.25.16-.294-.041-.535-.005-.535.08 0 .084-.519.153-1.153.153-.635 0-1.154.056-1.154.124 0 .259-1.997.312-2.727.073-.531-.174-1.159-.216-2.447-.163-.953.039-1.652.023-1.554-.034.267-.156-1.946-.283-3.269-.188-.634.046-1.153.168-1.153.27 0 .11-.24.154-.577.108-.359-.05-.577.001-.577.134 0 .238-1.306.44-1.936.3-.222-.05-.628-.024-.901.058-.617.185-10.053.236-10.72.057-.702-.187-2.976-.229-2.976-.054 0 .253-1.33.166-2.04-.134-.684-.29-1.42-.26-1.42.058 0 .294-1.799.768-2.62.69-.415-.039-.87-.003-1.013.08-.324.19-2.01.199-2.328.012-.13-.076-.559-.139-.951-.139-.394 0-.777-.067-.853-.15-.186-.202-3.614-.307-4.49-.138-.479.093-.843.085-1.148-.026-.34-.123-.593-.086-1.052.151-1.02.527-2.47.998-3.071.998-.315 0-1.442-.16-2.506-.355-1.109-.203-2.24-.319-2.654-.271a5.383 5.383 0 0 1-1.494-.092c-.657-.148-1.07-.12-2.747.193-2.016.376-2.887.374-3.74-.009-.374-.168-.585-.18-.941-.05-.254.091-.95.166-1.55.166-.635 0-1.185.091-1.32.22-.168.158-.508.193-1.238.125-2.045-.19-2.735-.207-2.735-.07 0 .081-.996.143-2.307.143-1.282 0-2.307.061-2.307.139 0 .076-.443.139-.984.139-.558 0-.881.06-.746.139.13.076.054.14-.17.14-.226 0-.408-.09-.408-.198 0-.108-.476-.26-1.057-.337-.582-.077-.842-.144-.577-.15.662-.016.61-.29-.055-.29-.294 0-.627.087-.74.193-.2.19-2.298.363-4.78.396-.687.009-1.25.063-1.25.12 0 .33-4.805.371-5.787.05-.63-.207-3.098-.28-3.579-.106-.145.053-.65.116-1.121.14-.47.024-1.475.303-2.233.62l-1.378.577-1.863-.23c-1.024-.126-2.437-.23-3.14-.23-.879 0-1.277-.065-1.277-.208 0-.289-.494-.261-1.045.058-.466.27-2.031.26-2.031-.014 0-.224-2.34.456-2.783.808-.23.181-.659.33-.954.33-.296 0-.42.07-.275.154.451.264-1.474-.016-2.525-.367-.697-.234-1.251-.301-2.018-.247-.582.041-1.058.133-1.058.203 0 .229-2.799.731-4.204.755-1.64.027-2.658.14-4.828.538-1.68.307-2.503.316-2.503.026 0-.269-1.99-.474-3.192-.33-.77.094-1.296.074-1.915-.073-.854-.202-1.307-.176-3.593.207-.61.102-1.07.077-1.808-.098-.562-.133-1.312-.197-1.737-.149-.439.05-.99-.002-1.337-.127-.82-.297-2.047-.267-3.64.09-1.32.295-1.402.296-3.18.068-1.72-.221-3.274-.196-2.86.045.102.06-.201.117-.676.125-2.856.048-5.367.137-5.53.197-.105.037-.808.007-1.563-.069-.905-.09-1.454-.09-1.609 0-.313.184-.418.186-1.864.036-.791-.082-1.329-.08-1.476.006-.148.087-.394.088-.678.003-.823-.245-3.985-.345-4.347-.138-.896.512-4.864.763-7.25.458-1.88-.24-2.24-.248-1.885-.04.188.11.016.137-.54.084-.473-.045-1.008.007-1.275.124a2.12 2.12 0 0 1-.963.13c-.277-.038-.605-.01-.73.064-.125.073-.661.133-1.192.133-.53 0-1.286.062-1.68.138-.526.102-.871.084-1.293-.07-.317-.114-1.253-.208-2.08-.208-.828 0-2.3-.086-3.273-.192-1.509-.164-1.797-.164-1.973.002-.158.148-.69.173-2.28.106-1.331-.057-2.165-.035-2.331.063-.172.1-1.3.122-3.38.064-2.192-.061-3.047-.042-2.867.063.42.245-1.983.355-3.781.173-1.21-.122-1.857-.126-2.436-.014-1 .194-2.503.2-2.178.01h-.01z"/>
</svg>
