<?xml version="1.0" encoding="UTF-8"?>
<svg width="272px" height="85px" viewBox="0 0 272 85" version="1.1" xmlns="http://www.w3.org/2000/svg" xmlns:xlink="http://www.w3.org/1999/xlink">
    <!-- Generator: Sketch 51.3 (57544) - http://www.bohemiancoding.com/sketch -->
    <title>signature-5</title>
    <desc>Created with Sketch.</desc>
    <defs></defs>
    <g id="Work-in-progress" stroke="none" stroke-width="1" fill="none" fill-rule="evenodd">
        <g id="Final-Design" transform="translate(-969.000000, -8099.000000)" fill="#3E396B" fill-rule="nonzero">
            <g id="signature-5" transform="translate(969.000000, 8099.000000)">
                <path d="M103.79546,84.4318136 C103.056463,83.2926542 105.004727,80.947326 113.93987,72.035079 L122.337561,63.5918977 L119.112848,63.9269446 C117.366128,64.1279727 109.707434,64.5970383 102.115921,64.9990946 C85.5220842,65.8702165 85.3205396,65.9372258 85.7908103,67.6794696 C86.261081,69.4887227 84.2456351,69.4887227 82.7676416,67.6794696 C81.6255556,66.3392821 81.6255556,66.3392821 59.1869255,68.6846102 L36.8154769,71.0969478 L32.3143146,74.6484447 C29.8957796,76.658726 27.0069739,79.2050822 25.9320695,80.3442416 C23.9838052,82.3545229 21.9683594,83.0246167 21.1621811,81.8184479 C20.9606365,81.483401 21.2293626,80.8133073 21.6996333,80.2772323 C22.169904,79.8081666 23.5807161,77.7978854 24.7899835,75.7876041 L26.9397924,72.1690978 L23.3791715,72.6381634 C21.4309072,72.8391915 15.3845697,73.2412478 9.94286603,73.4422759 C1.20926749,73.8443322 0,73.7773228 0,72.8391915 C0,72.035079 1.00772291,71.7000322 4.23243622,71.4319946 C6.51660814,71.2309665 12.6301271,70.7619009 17.8031047,70.2928353 C22.9760823,69.890779 27.6787892,69.2876946 28.2162414,69.0196571 C28.7536937,68.6846102 33.1876745,60.7775039 37.9575629,51.3291819 C45.2131678,37.0561848 46.9598875,34.1747817 48.1019735,34.1747817 C49.7143302,34.1747817 56.2309383,38.7314192 61.672642,43.6231037 L65.2332629,46.8395537 L79.8116544,37.257213 C87.8062561,31.9634723 96.0695839,26.736741 98.0850298,25.6645909 C100.100476,24.5254316 103.929823,22.4481409 106.482721,20.9739346 C124.151462,10.9895376 145.918277,0 148.135268,0 C150.688166,0 148.471175,2.54635628 139.939121,9.58234075 C127.913628,19.432719 110.916701,34.3758098 102.115921,42.7519818 L95.061861,49.5199287 L97.4132145,49.5869381 C100.436383,49.5869381 115.081956,53.5404913 121.934472,56.2208663 C124.890459,57.3600257 127.57772,58.298157 127.846446,58.298157 C128.115172,58.298157 133.892784,53.138435 140.610936,46.7725443 C153.98006,34.2417911 164.661923,25.3965534 175.007878,18.4275784 C182.397846,13.4688845 185.152289,12.0616877 187.772369,12.0616877 C189.183181,12.0616877 189.451907,12.3967345 189.451907,13.9379502 C189.451907,14.9430908 189.183181,16.0822502 188.847273,16.4172971 C187.167735,18.1595409 173.865792,46.1024506 171.312894,53.2724538 C170.641079,55.1487163 169.902082,57.1589976 169.633356,57.8290914 C169.163086,58.9012414 170.103627,58.9682507 182.935299,58.9682507 L196.64033,58.9682507 L197.110601,55.8188101 C197.312145,54.1435757 197.379327,52.60236 197.177782,52.4013319 C197.043419,52.2003038 193.617161,53.2054444 189.653451,54.6126413 C181.322942,57.4940445 175.343786,58.3651664 175.343786,56.689932 C175.343786,56.0198382 175.881238,55.6177819 176.754598,55.6177819 C177.560776,55.6177819 181.927576,54.2775944 186.563101,52.60236 C191.131445,50.9271256 195.76697,49.5869381 196.841875,49.5869381 C199.193228,49.5869381 200.200951,51.1281538 200.200951,54.5456319 C200.200951,56.7569413 200.335314,56.9579695 202.216397,56.9579695 C203.560028,56.9579695 205.373929,56.0198382 207.859645,53.9425476 C212.293626,50.3910506 213.637257,50.1230131 213.637257,52.8703975 C213.637257,54.0095569 213.905983,55.0146976 214.24189,55.2157257 C214.510616,55.4167538 217.063514,54.8136694 219.750776,53.9425476 C224.856572,52.2673132 227.745377,51.8652569 227.745377,52.8033882 C227.745377,53.8085288 231.104454,54.9476882 234.127622,54.9476882 C235.739979,54.9476882 238.628785,54.3446038 240.509867,53.6075007 C244.540759,51.9992757 245.88439,51.9322663 245.88439,53.2054444 C245.88439,54.0095569 242.525313,56.0198382 239.166237,57.1589976 C238.628785,57.3600257 245.279756,57.5610538 254.013354,57.5610538 L269.935376,57.6280632 L270.338466,56.153857 C270.808736,54.1435757 272.28673,55.4837632 271.950822,57.6950726 C271.749278,59.3032976 271.682096,59.3032976 262.007956,59.4373164 C238.091333,59.8393726 183.674295,61.1125508 176.284327,61.4475976 L168.222544,61.8496539 L166.408643,68.282554 C165.40092,71.8340509 164.594742,75.2515291 164.594742,75.8546135 C164.594742,77.6638666 163.855745,79.0710635 162.848022,79.0710635 C162.31057,79.0710635 158.749949,77.194801 154.987783,74.9164822 C151.225618,72.6381634 144.641828,69.0866665 140.34221,67.0763852 C133.489695,63.7929258 132.146064,63.3238602 129.122895,63.5248883 C125.495093,63.7929258 125.092004,64.1279727 109.640252,80.6122791 C105.273453,85.1689167 104.534456,85.6379823 103.79546,84.4318136 Z M163.251111,69.354704 C164.05729,66.0712446 164.930649,62.9218039 165.132194,62.4527383 C165.40092,61.7156351 163.788563,61.6486258 156.465777,61.9836727 C151.494344,62.1847008 145.58237,62.5197477 143.365379,62.7207758 L139.267306,63.0558227 L146.05264,66.6073196 C149.747624,68.5505915 154.786239,71.3649853 157.204774,72.8391915 C159.623309,74.3133978 161.638755,75.5195666 161.638755,75.4525572 C161.705936,75.4525572 162.444933,72.7051728 163.251111,69.354704 Z M40.9807316,64.2619914 C43.7351742,62.1176914 49.7143302,57.6950726 54.282674,54.4786226 L62.5460019,48.5817975 L58.8510179,45.0973099 C56.7683905,43.2210474 53.6780403,40.6746911 51.9313206,39.4685224 C49.3784225,37.6592692 48.7066072,37.4582411 48.2363366,38.2623536 C47.1614321,40.0045974 32.2471331,68.4835821 32.2471331,68.7516196 C32.2471331,69.890779 36.8154769,67.5454508 40.9807316,64.2619914 Z M62.0757312,65.8032071 L79.4757467,63.9939539 L72.2201418,57.226007 L64.9645368,50.3910506 L59.1869255,54.4786226 C56.0293937,56.689932 50.7220531,60.5764758 47.4301582,63.0558227 C42.8618144,66.6073196 41.8540915,67.6794696 43.063359,67.6124602 C43.9367188,67.6124602 52.5359543,66.8083477 62.0757312,65.8032071 Z M107.490444,61.9166633 C117.298947,61.3805883 125.36073,60.7775039 125.495093,60.7104945 C125.763819,60.3754476 118.508214,57.9631101 113.200873,56.6229226 C110.647975,55.9528288 107.020173,55.0146976 105.13909,54.4786226 C103.325189,54.0095569 99.3614788,53.2054444 96.4054916,52.7363788 C91.9043293,51.9992757 91.0309694,51.6642288 90.8966063,50.5920788 C90.7622433,48.5817975 118.911303,22.8501972 138.393946,7.17000322 C140.678118,5.36075007 140.610936,5.36075007 136.042593,7.57205947 C127.376176,11.8606595 102.854918,25.3295441 98.9583896,28.0099191 C96.8085807,29.4841254 88.9483421,34.6438473 81.4911925,39.5355317 C73.9668615,44.4272162 67.8533425,48.5817975 67.8533425,48.7828256 C67.8533425,48.9838537 71.2796004,52.4013319 75.4448551,56.4218945 L82.9691861,63.658907 L86.3282625,63.3238602 C88.2093453,63.122832 97.6819406,62.5197477 107.490444,61.9166633 Z M159.287401,59.1692789 L166.408643,58.7672226 L167.953818,54.3446038 C170.372353,47.5096475 177.560776,31.4273973 182.061939,22.9842159 C186.697464,14.1389783 186.630283,14.0719689 177.896684,19.2316909 C168.222544,24.9944972 158.682767,32.7675848 142.021749,48.4477787 C135.706685,54.4116132 130.66807,59.5713351 130.869615,59.906382 C131.205523,60.442457 142.290475,60.1744195 159.287401,59.1692789 Z M211.218722,57.2930163 C210.882814,56.4889038 210.546906,56.4218945 209.875091,57.0249788 C208.598642,58.0301195 208.665824,58.298157 210.27818,58.298157 C211.15154,58.298157 211.487448,57.9631101 211.218722,57.2930163 Z M228.820282,56.6229226 C224.990935,55.0817069 224.923753,55.0817069 222.438037,56.2878757 C221.094406,56.9579695 219.549231,57.6280632 219.011779,57.8290914 C218.474327,58.0301195 221.363132,58.2311476 225.394024,58.2311476 L232.783992,58.298157 L228.820282,56.6229226 Z" id="Shape"></path>
            </g>
        </g>
    </g>
</svg>